<mxfile host="65bd71144e">
    <diagram name="Page-1" id="0eeWLhEhAbjt74QTUGkZ">
        <mxGraphModel dx="2797" dy="1915" grid="1" gridSize="10" guides="1" tooltips="1" connect="1" arrows="1" fold="1" page="1" pageScale="1" pageWidth="827" pageHeight="1169" math="0" shadow="0">
            <root>
                <mxCell id="0"/>
                <mxCell id="1" parent="0"/>
                <mxCell id="io5GCxzzSzc3zPwwghzN-119" value="network.txt" style="swimlane;fontStyle=0;childLayout=stackLayout;horizontal=1;startSize=30;horizontalStack=0;resizeParent=1;resizeParentMax=0;resizeLast=0;collapsible=1;marginBottom=0;whiteSpace=wrap;html=1;" parent="1" vertex="1">
                    <mxGeometry x="-320" y="70" width="551.29" height="1050" as="geometry"/>
                </mxCell>
                <mxCell id="io5GCxzzSzc3zPwwghzN-120" value="Node : n_1, n_2, n_3" style="text;strokeColor=none;fillColor=none;align=left;verticalAlign=middle;spacingLeft=4;spacingRight=4;overflow=hidden;points=[[0,0.5],[1,0.5]];portConstraint=eastwest;rotatable=0;whiteSpace=wrap;html=1;" parent="io5GCxzzSzc3zPwwghzN-119" vertex="1">
                    <mxGeometry y="30" width="551.29" height="30" as="geometry"/>
                </mxCell>
                <mxCell id="W_Fl8U6niNGUEY-Sqnad-460" value="&lt;span style=&quot;color: rgb(0, 0, 0); font-family: Helvetica; font-size: 12px; font-style: normal; font-variant-ligatures: normal; font-variant-caps: normal; font-weight: 400; letter-spacing: normal; orphans: 2; text-align: center; text-indent: 0px; text-transform: none; widows: 2; word-spacing: 0px; -webkit-text-stroke-width: 0px; background-color: rgb(251, 251, 251); text-decoration-thickness: initial; text-decoration-style: initial; text-decoration-color: initial; float: none; display: inline !important;&quot;&gt;ReserveDistrict :&amp;nbsp;&lt;/span&gt;d_1_resint, d_2_resint" style="text;strokeColor=none;fillColor=none;align=left;verticalAlign=middle;spacingLeft=4;spacingRight=4;overflow=hidden;points=[[0,0.5],[1,0.5]];portConstraint=eastwest;rotatable=0;whiteSpace=wrap;html=1;" parent="io5GCxzzSzc3zPwwghzN-119" vertex="1">
                    <mxGeometry y="60" width="551.29" height="30" as="geometry"/>
                </mxCell>
                <mxCell id="W_Fl8U6niNGUEY-Sqnad-461" value="&lt;span style=&quot;border-color: var(--border-color); color: rgb(0, 0, 0); font-family: Helvetica; font-size: 12px; font-style: normal; font-variant-ligatures: normal; font-variant-caps: normal; font-weight: 400; letter-spacing: normal; orphans: 2; text-indent: 0px; text-transform: none; widows: 2; word-spacing: 0px; -webkit-text-stroke-width: 0px; text-decoration-thickness: initial; text-decoration-style: initial; text-decoration-color: initial; text-align: center; background-color: rgb(251, 251, 251); float: none; display: inline !important;&quot;&gt;Reserve district :&amp;nbsp;&lt;/span&gt;&lt;span style=&quot;color: rgb(0, 0, 0); font-family: Helvetica; font-size: 12px; font-style: normal; font-variant-ligatures: normal; font-variant-caps: normal; font-weight: 400; letter-spacing: normal; orphans: 2; text-align: left; text-indent: 0px; text-transform: none; widows: 2; word-spacing: 0px; -webkit-text-stroke-width: 0px; background-color: rgb(251, 251, 251); text-decoration-thickness: initial; text-decoration-style: initial; text-decoration-color: initial; float: none; display: inline !important;&quot;&gt;d_1_resexc, d_2_resexc&lt;/span&gt;" style="text;strokeColor=none;fillColor=none;align=left;verticalAlign=middle;spacingLeft=4;spacingRight=4;overflow=hidden;points=[[0,0.5],[1,0.5]];portConstraint=eastwest;rotatable=0;whiteSpace=wrap;html=1;" parent="io5GCxzzSzc3zPwwghzN-119" vertex="1">
                    <mxGeometry y="90" width="551.29" height="30" as="geometry"/>
                </mxCell>
                <mxCell id="io5GCxzzSzc3zPwwghzN-121" value="Thermal : prod_1, prod_2, prod_3, prod_4" style="text;strokeColor=none;fillColor=none;align=left;verticalAlign=middle;spacingLeft=4;spacingRight=4;overflow=hidden;points=[[0,0.5],[1,0.5]];portConstraint=eastwest;rotatable=0;whiteSpace=wrap;html=1;" parent="io5GCxzzSzc3zPwwghzN-119" vertex="1">
                    <mxGeometry y="120" width="551.29" height="30" as="geometry"/>
                </mxCell>
                <mxCell id="io5GCxzzSzc3zPwwghzN-122" value="LinkWithReserve : l12, l13, l23" style="text;strokeColor=none;fillColor=none;align=left;verticalAlign=middle;spacingLeft=4;spacingRight=4;overflow=hidden;points=[[0,0.5],[1,0.5]];portConstraint=eastwest;rotatable=0;whiteSpace=wrap;html=1;" parent="io5GCxzzSzc3zPwwghzN-119" vertex="1">
                    <mxGeometry y="150" width="551.29" height="30" as="geometry"/>
                </mxCell>
                <mxCell id="EA9z76p3zM__a-H7yWGD-18" value="ReserveConverter : conv_res_Int_ext_1, conv_res_Int_ext_2" style="text;strokeColor=none;fillColor=none;align=left;verticalAlign=middle;spacingLeft=4;spacingRight=4;overflow=hidden;points=[[0,0.5],[1,0.5]];portConstraint=eastwest;rotatable=0;whiteSpace=wrap;html=1;" parent="io5GCxzzSzc3zPwwghzN-119" vertex="1">
                    <mxGeometry y="180" width="551.29" height="30" as="geometry"/>
                </mxCell>
                <mxCell id="iP_96sDD1zky21pLPqme-15" value="ReserveDemand : demand_resint_1,&amp;nbsp;demand_resint_2, demand_resexc_1,&amp;nbsp;demand_resexc_2" style="text;strokeColor=none;fillColor=none;align=left;verticalAlign=middle;spacingLeft=4;spacingRight=4;overflow=hidden;points=[[0,0.5],[1,0.5]];portConstraint=eastwest;rotatable=0;whiteSpace=wrap;html=1;" parent="io5GCxzzSzc3zPwwghzN-119" vertex="1">
                    <mxGeometry y="210" width="551.29" height="30" as="geometry"/>
                </mxCell>
                <mxCell id="io5GCxzzSzc3zPwwghzN-124" value="l_12.flow_from -&amp;gt; n_1.flow_n" style="text;strokeColor=none;fillColor=none;align=left;verticalAlign=middle;spacingLeft=4;spacingRight=4;overflow=hidden;points=[[0,0.5],[1,0.5]];portConstraint=eastwest;rotatable=0;whiteSpace=wrap;html=1;" parent="io5GCxzzSzc3zPwwghzN-119" vertex="1">
                    <mxGeometry y="240" width="551.29" height="30" as="geometry"/>
                </mxCell>
                <mxCell id="io5GCxzzSzc3zPwwghzN-125" value="l_12.flow_to -&amp;gt; n_2.flow_n" style="text;strokeColor=none;fillColor=none;align=left;verticalAlign=middle;spacingLeft=4;spacingRight=4;overflow=hidden;points=[[0,0.5],[1,0.5]];portConstraint=eastwest;rotatable=0;whiteSpace=wrap;html=1;" parent="io5GCxzzSzc3zPwwghzN-119" vertex="1">
                    <mxGeometry y="270" width="551.29" height="30" as="geometry"/>
                </mxCell>
                <mxCell id="io5GCxzzSzc3zPwwghzN-126" value="l_13.flow_from -&amp;gt; n_1.flow_n" style="text;strokeColor=none;fillColor=none;align=left;verticalAlign=middle;spacingLeft=4;spacingRight=4;overflow=hidden;points=[[0,0.5],[1,0.5]];portConstraint=eastwest;rotatable=0;whiteSpace=wrap;html=1;" parent="io5GCxzzSzc3zPwwghzN-119" vertex="1">
                    <mxGeometry y="300" width="551.29" height="30" as="geometry"/>
                </mxCell>
                <mxCell id="io5GCxzzSzc3zPwwghzN-127" value="l_13.flow_to -&amp;gt; n_3.flow_n" style="text;strokeColor=none;fillColor=none;align=left;verticalAlign=middle;spacingLeft=4;spacingRight=4;overflow=hidden;points=[[0,0.5],[1,0.5]];portConstraint=eastwest;rotatable=0;whiteSpace=wrap;html=1;" parent="io5GCxzzSzc3zPwwghzN-119" vertex="1">
                    <mxGeometry y="330" width="551.29" height="30" as="geometry"/>
                </mxCell>
                <mxCell id="io5GCxzzSzc3zPwwghzN-128" value="l_23.flow_to -&amp;gt; n_3.flow_n" style="text;strokeColor=none;fillColor=none;align=left;verticalAlign=middle;spacingLeft=4;spacingRight=4;overflow=hidden;points=[[0,0.5],[1,0.5]];portConstraint=eastwest;rotatable=0;whiteSpace=wrap;html=1;" parent="io5GCxzzSzc3zPwwghzN-119" vertex="1">
                    <mxGeometry y="360" width="551.29" height="30" as="geometry"/>
                </mxCell>
                <mxCell id="io5GCxzzSzc3zPwwghzN-129" value="l_23.flow_from -&amp;gt; n_2.flow_n" style="text;strokeColor=none;fillColor=none;align=left;verticalAlign=middle;spacingLeft=4;spacingRight=4;overflow=hidden;points=[[0,0.5],[1,0.5]];portConstraint=eastwest;rotatable=0;whiteSpace=wrap;html=1;" parent="io5GCxzzSzc3zPwwghzN-119" vertex="1">
                    <mxGeometry y="390" width="551.29" height="30" as="geometry"/>
                </mxCell>
                <mxCell id="io5GCxzzSzc3zPwwghzN-130" value="prod_4.flow_p -&amp;gt; n_1.flow_n" style="text;strokeColor=none;fillColor=none;align=left;verticalAlign=middle;spacingLeft=4;spacingRight=4;overflow=hidden;points=[[0,0.5],[1,0.5]];portConstraint=eastwest;rotatable=0;whiteSpace=wrap;html=1;" parent="io5GCxzzSzc3zPwwghzN-119" vertex="1">
                    <mxGeometry y="420" width="551.29" height="30" as="geometry"/>
                </mxCell>
                <mxCell id="io5GCxzzSzc3zPwwghzN-131" value="prod_1.flow_p -&amp;gt; n_2.flow_n" style="text;strokeColor=none;fillColor=none;align=left;verticalAlign=middle;spacingLeft=4;spacingRight=4;overflow=hidden;points=[[0,0.5],[1,0.5]];portConstraint=eastwest;rotatable=0;whiteSpace=wrap;html=1;" parent="io5GCxzzSzc3zPwwghzN-119" vertex="1">
                    <mxGeometry y="450" width="551.29" height="30" as="geometry"/>
                </mxCell>
                <mxCell id="io5GCxzzSzc3zPwwghzN-132" value="prod_2.flow_p -&amp;gt; n_3.flow_n" style="text;strokeColor=none;fillColor=none;align=left;verticalAlign=middle;spacingLeft=4;spacingRight=4;overflow=hidden;points=[[0,0.5],[1,0.5]];portConstraint=eastwest;rotatable=0;whiteSpace=wrap;html=1;" parent="io5GCxzzSzc3zPwwghzN-119" vertex="1">
                    <mxGeometry y="480" width="551.29" height="30" as="geometry"/>
                </mxCell>
                <mxCell id="io5GCxzzSzc3zPwwghzN-133" value="prod_3.flow_p -&amp;gt; n_3.flow_n" style="text;strokeColor=none;fillColor=none;align=left;verticalAlign=middle;spacingLeft=4;spacingRight=4;overflow=hidden;points=[[0,0.5],[1,0.5]];portConstraint=eastwest;rotatable=0;whiteSpace=wrap;html=1;" parent="io5GCxzzSzc3zPwwghzN-119" vertex="1">
                    <mxGeometry y="510" width="551.29" height="30" as="geometry"/>
                </mxCell>
                <mxCell id="EA9z76p3zM__a-H7yWGD-20" value="prod_4.res_r -&amp;gt;&amp;nbsp; d_1_resint.res_di" style="text;strokeColor=none;fillColor=none;align=left;verticalAlign=middle;spacingLeft=4;spacingRight=4;overflow=hidden;points=[[0,0.5],[1,0.5]];portConstraint=eastwest;rotatable=0;whiteSpace=wrap;html=1;" parent="io5GCxzzSzc3zPwwghzN-119" vertex="1">
                    <mxGeometry y="540" width="551.29" height="30" as="geometry"/>
                </mxCell>
                <mxCell id="io5GCxzzSzc3zPwwghzN-141" value="prod_1.res_r -&amp;gt;&amp;nbsp; d_2_resint.res_di" style="text;strokeColor=none;fillColor=none;align=left;verticalAlign=middle;spacingLeft=4;spacingRight=4;overflow=hidden;points=[[0,0.5],[1,0.5]];portConstraint=eastwest;rotatable=0;whiteSpace=wrap;html=1;" parent="io5GCxzzSzc3zPwwghzN-119" vertex="1">
                    <mxGeometry y="570" width="551.29" height="30" as="geometry"/>
                </mxCell>
                <mxCell id="io5GCxzzSzc3zPwwghzN-142" value="prod_2.res_r -&amp;gt;&amp;nbsp; d_2_resint.res_di" style="text;strokeColor=none;fillColor=none;align=left;verticalAlign=middle;spacingLeft=4;spacingRight=4;overflow=hidden;points=[[0,0.5],[1,0.5]];portConstraint=eastwest;rotatable=0;whiteSpace=wrap;html=1;" parent="io5GCxzzSzc3zPwwghzN-119" vertex="1">
                    <mxGeometry y="600" width="551.29" height="30" as="geometry"/>
                </mxCell>
                <mxCell id="io5GCxzzSzc3zPwwghzN-143" value="prod_3.res_r -&amp;gt;&amp;nbsp; d_2_resint.res_di" style="text;strokeColor=none;fillColor=none;align=left;verticalAlign=middle;spacingLeft=4;spacingRight=4;overflow=hidden;points=[[0,0.5],[1,0.5]];portConstraint=eastwest;rotatable=0;whiteSpace=wrap;html=1;" parent="io5GCxzzSzc3zPwwghzN-119" vertex="1">
                    <mxGeometry y="630" width="551.29" height="30" as="geometry"/>
                </mxCell>
                <mxCell id="io5GCxzzSzc3zPwwghzN-310" value="demand_resint_1.res_d -&amp;gt;d_1_resint.res_di" style="text;strokeColor=none;fillColor=none;align=left;verticalAlign=middle;spacingLeft=4;spacingRight=4;overflow=hidden;points=[[0,0.5],[1,0.5]];portConstraint=eastwest;rotatable=0;whiteSpace=wrap;html=1;" parent="io5GCxzzSzc3zPwwghzN-119" vertex="1">
                    <mxGeometry y="660" width="551.29" height="30" as="geometry"/>
                </mxCell>
                <mxCell id="io5GCxzzSzc3zPwwghzN-144" value="demand_resint_2.res_d -&amp;gt;d_2_resint.res_di" style="text;strokeColor=none;fillColor=none;align=left;verticalAlign=middle;spacingLeft=4;spacingRight=4;overflow=hidden;points=[[0,0.5],[1,0.5]];portConstraint=eastwest;rotatable=0;whiteSpace=wrap;html=1;" parent="io5GCxzzSzc3zPwwghzN-119" vertex="1">
                    <mxGeometry y="690" width="551.29" height="30" as="geometry"/>
                </mxCell>
                <mxCell id="io5GCxzzSzc3zPwwghzN-307" value="demand_resexc_1.res_d -&amp;gt;d_1_resexc.res_di" style="text;strokeColor=none;fillColor=none;align=left;verticalAlign=middle;spacingLeft=4;spacingRight=4;overflow=hidden;points=[[0,0.5],[1,0.5]];portConstraint=eastwest;rotatable=0;whiteSpace=wrap;html=1;" parent="io5GCxzzSzc3zPwwghzN-119" vertex="1">
                    <mxGeometry y="720" width="551.29" height="30" as="geometry"/>
                </mxCell>
                <mxCell id="io5GCxzzSzc3zPwwghzN-308" value="demand_resexc_2.res_d -&amp;gt;d_2_resexc.res_di" style="text;strokeColor=none;fillColor=none;align=left;verticalAlign=middle;spacingLeft=4;spacingRight=4;overflow=hidden;points=[[0,0.5],[1,0.5]];portConstraint=eastwest;rotatable=0;whiteSpace=wrap;html=1;" parent="io5GCxzzSzc3zPwwghzN-119" vertex="1">
                    <mxGeometry y="750" width="551.29" height="30" as="geometry"/>
                </mxCell>
                <mxCell id="io5GCxzzSzc3zPwwghzN-309" value="conv_res_Int_ext_1.res_from -&amp;gt; d_1_resint.res_di" style="text;strokeColor=none;fillColor=none;align=left;verticalAlign=middle;spacingLeft=4;spacingRight=4;overflow=hidden;points=[[0,0.5],[1,0.5]];portConstraint=eastwest;rotatable=0;whiteSpace=wrap;html=1;" parent="io5GCxzzSzc3zPwwghzN-119" vertex="1">
                    <mxGeometry y="780" width="551.29" height="30" as="geometry"/>
                </mxCell>
                <mxCell id="EA9z76p3zM__a-H7yWGD-19" value="conv_res_Int_ext_1.res_to -&amp;gt; d_1_resexc.res_di" style="text;strokeColor=none;fillColor=none;align=left;verticalAlign=middle;spacingLeft=4;spacingRight=4;overflow=hidden;points=[[0,0.5],[1,0.5]];portConstraint=eastwest;rotatable=0;whiteSpace=wrap;html=1;" parent="io5GCxzzSzc3zPwwghzN-119" vertex="1">
                    <mxGeometry y="810" width="551.29" height="30" as="geometry"/>
                </mxCell>
                <mxCell id="EA9z76p3zM__a-H7yWGD-24" value="conv_res_Int_ext_2.res_from -&amp;gt; d_2_resint.res_di" style="text;strokeColor=none;fillColor=none;align=left;verticalAlign=middle;spacingLeft=4;spacingRight=4;overflow=hidden;points=[[0,0.5],[1,0.5]];portConstraint=eastwest;rotatable=0;whiteSpace=wrap;html=1;" parent="io5GCxzzSzc3zPwwghzN-119" vertex="1">
                    <mxGeometry y="840" width="551.29" height="30" as="geometry"/>
                </mxCell>
                <mxCell id="EA9z76p3zM__a-H7yWGD-25" value="conv_res_Int_ext_2.res_to -&amp;gt; d_2_resexc.res_di" style="text;strokeColor=none;fillColor=none;align=left;verticalAlign=middle;spacingLeft=4;spacingRight=4;overflow=hidden;points=[[0,0.5],[1,0.5]];portConstraint=eastwest;rotatable=0;whiteSpace=wrap;html=1;" parent="io5GCxzzSzc3zPwwghzN-119" vertex="1">
                    <mxGeometry y="870" width="551.29" height="30" as="geometry"/>
                </mxCell>
                <mxCell id="W_Fl8U6niNGUEY-Sqnad-468" value="l_12.res_from -&amp;gt;d_1_resexc.res_di" style="text;strokeColor=none;fillColor=none;align=left;verticalAlign=middle;spacingLeft=4;spacingRight=4;overflow=hidden;points=[[0,0.5],[1,0.5]];portConstraint=eastwest;rotatable=0;whiteSpace=wrap;html=1;" parent="io5GCxzzSzc3zPwwghzN-119" vertex="1">
                    <mxGeometry y="900" width="551.29" height="30" as="geometry"/>
                </mxCell>
                <mxCell id="W_Fl8U6niNGUEY-Sqnad-503" value="l_12.res_to -&amp;gt;d_2_resexc.res_di" style="text;strokeColor=none;fillColor=none;align=left;verticalAlign=middle;spacingLeft=4;spacingRight=4;overflow=hidden;points=[[0,0.5],[1,0.5]];portConstraint=eastwest;rotatable=0;whiteSpace=wrap;html=1;" parent="io5GCxzzSzc3zPwwghzN-119" vertex="1">
                    <mxGeometry y="930" width="551.29" height="30" as="geometry"/>
                </mxCell>
                <mxCell id="W_Fl8U6niNGUEY-Sqnad-467" value="&lt;span style=&quot;color: rgb(0, 0, 0); font-family: Helvetica; font-size: 12px; font-style: normal; font-variant-ligatures: normal; font-variant-caps: normal; font-weight: 400; letter-spacing: normal; orphans: 2; text-align: left; text-indent: 0px; text-transform: none; widows: 2; word-spacing: 0px; -webkit-text-stroke-width: 0px; background-color: rgb(251, 251, 251); text-decoration-thickness: initial; text-decoration-style: initial; text-decoration-color: initial; float: none; display: inline !important;&quot;&gt;l_13.res_from -&amp;gt;d_1_resexc.res_di&lt;/span&gt;" style="text;strokeColor=none;fillColor=none;align=left;verticalAlign=middle;spacingLeft=4;spacingRight=4;overflow=hidden;points=[[0,0.5],[1,0.5]];portConstraint=eastwest;rotatable=0;whiteSpace=wrap;html=1;" parent="io5GCxzzSzc3zPwwghzN-119" vertex="1">
                    <mxGeometry y="960" width="551.29" height="30" as="geometry"/>
                </mxCell>
                <mxCell id="W_Fl8U6niNGUEY-Sqnad-466" value="&lt;span style=&quot;border-color: var(--border-color); color: rgb(0, 0, 0); font-family: Helvetica; font-size: 12px; font-style: normal; font-variant-ligatures: normal; font-variant-caps: normal; font-weight: 400; letter-spacing: normal; orphans: 2; text-align: left; text-indent: 0px; text-transform: none; widows: 2; word-spacing: 0px; -webkit-text-stroke-width: 0px; text-decoration-thickness: initial; text-decoration-style: initial; text-decoration-color: initial; background-color: rgb(251, 251, 251); float: none; display: inline !important;&quot;&gt;l_13.res_to -&amp;gt;d_2_resexc.res_di&lt;/span&gt;" style="text;strokeColor=none;fillColor=none;align=left;verticalAlign=middle;spacingLeft=4;spacingRight=4;overflow=hidden;points=[[0,0.5],[1,0.5]];portConstraint=eastwest;rotatable=0;whiteSpace=wrap;html=1;" parent="io5GCxzzSzc3zPwwghzN-119" vertex="1">
                    <mxGeometry y="990" width="551.29" height="30" as="geometry"/>
                </mxCell>
                <mxCell id="W_Fl8U6niNGUEY-Sqnad-465" style="text;strokeColor=none;fillColor=none;align=left;verticalAlign=middle;spacingLeft=4;spacingRight=4;overflow=hidden;points=[[0,0.5],[1,0.5]];portConstraint=eastwest;rotatable=0;whiteSpace=wrap;html=1;" parent="io5GCxzzSzc3zPwwghzN-119" vertex="1">
                    <mxGeometry y="1020" width="551.29" height="30" as="geometry"/>
                </mxCell>
                <mxCell id="EA9z76p3zM__a-H7yWGD-36" value="&lt;font style=&quot;&quot;&gt;&lt;b style=&quot;&quot;&gt;&lt;span style=&quot;font-size: 32px;&quot;&gt;Système Physique&lt;/span&gt;&lt;br&gt;Modélisation de 2 districts dans lesquels sont définis un besoin interne ( à satisfaire au sein du district) et un besoin échangeable (à satisfaire au sein du district ou dans l'autre district en réservant de la capacité) de 2 réserves ( avec une différenciation hausse/baisse). La modélisation est en NTC.&lt;br&gt;&lt;/b&gt;&lt;/font&gt;" style="text;html=1;strokeColor=none;fillColor=none;align=center;verticalAlign=middle;whiteSpace=wrap;rounded=0;" parent="1" vertex="1">
                    <mxGeometry x="-841.9399999999999" y="-370" width="541.29" height="120" as="geometry"/>
                </mxCell>
                <mxCell id="EA9z76p3zM__a-H7yWGD-38" value="&lt;font style=&quot;font-size: 32px;&quot;&gt;&lt;b&gt;Données&lt;/b&gt;&lt;/font&gt;" style="text;html=1;strokeColor=none;fillColor=none;align=center;verticalAlign=middle;whiteSpace=wrap;rounded=0;" parent="1" vertex="1">
                    <mxGeometry x="-178.71" y="-40" width="380" height="120" as="geometry"/>
                </mxCell>
                <mxCell id="W_Fl8U6niNGUEY-Sqnad-230" value="" style="group" parent="1" vertex="1" connectable="0">
                    <mxGeometry x="453.73" y="160" width="1160" height="651" as="geometry"/>
                </mxCell>
                <mxCell id="W_Fl8U6niNGUEY-Sqnad-231" value="" style="group" parent="W_Fl8U6niNGUEY-Sqnad-230" vertex="1" connectable="0">
                    <mxGeometry x="200" width="80" height="110" as="geometry"/>
                </mxCell>
                <mxCell id="W_Fl8U6niNGUEY-Sqnad-232" value="n_1" style="ellipse;whiteSpace=wrap;html=1;aspect=fixed;fillColor=#dae8fc;strokeColor=#6c8ebf;" parent="W_Fl8U6niNGUEY-Sqnad-231" vertex="1">
                    <mxGeometry width="80" height="80" as="geometry"/>
                </mxCell>
                <mxCell id="W_Fl8U6niNGUEY-Sqnad-233" value="flow_n" style="rounded=0;whiteSpace=wrap;html=1;fillColor=#dae8fc;strokeColor=#6c8ebf;" parent="W_Fl8U6niNGUEY-Sqnad-231" vertex="1">
                    <mxGeometry x="15" y="80" width="50" height="30" as="geometry"/>
                </mxCell>
                <mxCell id="W_Fl8U6niNGUEY-Sqnad-234" value="" style="group" parent="W_Fl8U6niNGUEY-Sqnad-230" vertex="1" connectable="0">
                    <mxGeometry x="370" width="80" height="110" as="geometry"/>
                </mxCell>
                <mxCell id="W_Fl8U6niNGUEY-Sqnad-235" value="n_2" style="ellipse;whiteSpace=wrap;html=1;aspect=fixed;fillColor=#dae8fc;strokeColor=#6c8ebf;" parent="W_Fl8U6niNGUEY-Sqnad-234" vertex="1">
                    <mxGeometry width="80" height="80" as="geometry"/>
                </mxCell>
                <mxCell id="W_Fl8U6niNGUEY-Sqnad-236" value="flow_n" style="rounded=0;whiteSpace=wrap;html=1;fillColor=#dae8fc;strokeColor=#6c8ebf;" parent="W_Fl8U6niNGUEY-Sqnad-234" vertex="1">
                    <mxGeometry x="15" y="80" width="50" height="30" as="geometry"/>
                </mxCell>
                <mxCell id="W_Fl8U6niNGUEY-Sqnad-237" value="" style="group" parent="W_Fl8U6niNGUEY-Sqnad-230" vertex="1" connectable="0">
                    <mxGeometry x="530" width="80" height="110" as="geometry"/>
                </mxCell>
                <mxCell id="W_Fl8U6niNGUEY-Sqnad-238" value="n_3" style="ellipse;whiteSpace=wrap;html=1;aspect=fixed;fillColor=#dae8fc;strokeColor=#6c8ebf;" parent="W_Fl8U6niNGUEY-Sqnad-237" vertex="1">
                    <mxGeometry width="80" height="80" as="geometry"/>
                </mxCell>
                <mxCell id="W_Fl8U6niNGUEY-Sqnad-239" value="flow_n" style="rounded=0;whiteSpace=wrap;html=1;fillColor=#dae8fc;strokeColor=#6c8ebf;" parent="W_Fl8U6niNGUEY-Sqnad-237" vertex="1">
                    <mxGeometry x="15" y="80" width="50" height="30" as="geometry"/>
                </mxCell>
                <mxCell id="W_Fl8U6niNGUEY-Sqnad-240" value="" style="group" parent="W_Fl8U6niNGUEY-Sqnad-230" vertex="1" connectable="0">
                    <mxGeometry x="840" y="250" width="80" height="90" as="geometry"/>
                </mxCell>
                <mxCell id="W_Fl8U6niNGUEY-Sqnad-241" value="prod_1" style="rounded=1;whiteSpace=wrap;html=1;" parent="W_Fl8U6niNGUEY-Sqnad-240" vertex="1">
                    <mxGeometry y="30" width="80" height="30" as="geometry"/>
                </mxCell>
                <mxCell id="W_Fl8U6niNGUEY-Sqnad-242" value="flow_p" style="rounded=0;whiteSpace=wrap;html=1;fillColor=#dae8fc;strokeColor=#6c8ebf;" parent="W_Fl8U6niNGUEY-Sqnad-240" vertex="1">
                    <mxGeometry x="15" width="50" height="30" as="geometry"/>
                </mxCell>
                <mxCell id="W_Fl8U6niNGUEY-Sqnad-243" value="res_r" style="rounded=0;whiteSpace=wrap;html=1;fillColor=#d5e8d4;strokeColor=#82b366;" parent="W_Fl8U6niNGUEY-Sqnad-240" vertex="1">
                    <mxGeometry x="15" y="60" width="50" height="30" as="geometry"/>
                </mxCell>
                <mxCell id="W_Fl8U6niNGUEY-Sqnad-244" value="" style="group" parent="W_Fl8U6niNGUEY-Sqnad-230" vertex="1" connectable="0">
                    <mxGeometry x="-124" y="250" width="80" height="90" as="geometry"/>
                </mxCell>
                <mxCell id="W_Fl8U6niNGUEY-Sqnad-245" value="prod_4" style="rounded=1;whiteSpace=wrap;html=1;" parent="W_Fl8U6niNGUEY-Sqnad-244" vertex="1">
                    <mxGeometry y="30" width="80" height="30" as="geometry"/>
                </mxCell>
                <mxCell id="W_Fl8U6niNGUEY-Sqnad-246" value="flow_p" style="rounded=0;whiteSpace=wrap;html=1;fillColor=#dae8fc;strokeColor=#6c8ebf;" parent="W_Fl8U6niNGUEY-Sqnad-244" vertex="1">
                    <mxGeometry x="15" width="50" height="30" as="geometry"/>
                </mxCell>
                <mxCell id="W_Fl8U6niNGUEY-Sqnad-247" value="res_r" style="rounded=0;whiteSpace=wrap;html=1;fillColor=#D5E8D4;strokeColor=#D5E8D4;" parent="W_Fl8U6niNGUEY-Sqnad-244" vertex="1">
                    <mxGeometry x="15" y="60" width="50" height="30" as="geometry"/>
                </mxCell>
                <mxCell id="W_Fl8U6niNGUEY-Sqnad-248" value="" style="group" parent="W_Fl8U6niNGUEY-Sqnad-230" vertex="1" connectable="0">
                    <mxGeometry x="960" y="250" width="80" height="90" as="geometry"/>
                </mxCell>
                <mxCell id="W_Fl8U6niNGUEY-Sqnad-249" value="prod_2" style="rounded=1;whiteSpace=wrap;html=1;" parent="W_Fl8U6niNGUEY-Sqnad-248" vertex="1">
                    <mxGeometry y="30" width="80" height="30" as="geometry"/>
                </mxCell>
                <mxCell id="W_Fl8U6niNGUEY-Sqnad-250" value="flow_p" style="rounded=0;whiteSpace=wrap;html=1;fillColor=#dae8fc;strokeColor=#6c8ebf;" parent="W_Fl8U6niNGUEY-Sqnad-248" vertex="1">
                    <mxGeometry x="15" width="50" height="30" as="geometry"/>
                </mxCell>
                <mxCell id="W_Fl8U6niNGUEY-Sqnad-251" value="res_r" style="rounded=0;whiteSpace=wrap;html=1;fillColor=#d5e8d4;strokeColor=#82b366;" parent="W_Fl8U6niNGUEY-Sqnad-248" vertex="1">
                    <mxGeometry x="15" y="60" width="50" height="30" as="geometry"/>
                </mxCell>
                <mxCell id="W_Fl8U6niNGUEY-Sqnad-252" value="" style="group" parent="W_Fl8U6niNGUEY-Sqnad-230" vertex="1" connectable="0">
                    <mxGeometry x="1080" y="250" width="80" height="90" as="geometry"/>
                </mxCell>
                <mxCell id="W_Fl8U6niNGUEY-Sqnad-253" value="prod_3" style="rounded=1;whiteSpace=wrap;html=1;" parent="W_Fl8U6niNGUEY-Sqnad-252" vertex="1">
                    <mxGeometry y="30" width="80" height="30" as="geometry"/>
                </mxCell>
                <mxCell id="W_Fl8U6niNGUEY-Sqnad-254" value="flow_p" style="rounded=0;whiteSpace=wrap;html=1;fillColor=#dae8fc;strokeColor=#6c8ebf;" parent="W_Fl8U6niNGUEY-Sqnad-252" vertex="1">
                    <mxGeometry x="15" width="50" height="30" as="geometry"/>
                </mxCell>
                <mxCell id="W_Fl8U6niNGUEY-Sqnad-255" value="res_r" style="rounded=0;whiteSpace=wrap;html=1;fillColor=#d5e8d4;strokeColor=#82b366;" parent="W_Fl8U6niNGUEY-Sqnad-252" vertex="1">
                    <mxGeometry x="15" y="60" width="50" height="30" as="geometry"/>
                </mxCell>
                <mxCell id="W_Fl8U6niNGUEY-Sqnad-256" value="" style="group;strokeColor=#D5E8D4;" parent="W_Fl8U6niNGUEY-Sqnad-230" vertex="1" connectable="0">
                    <mxGeometry x="175.99999999999997" y="230" width="121.73000000000002" height="150" as="geometry"/>
                </mxCell>
                <mxCell id="W_Fl8U6niNGUEY-Sqnad-257" value="l_12" style="ellipse;whiteSpace=wrap;html=1;" parent="W_Fl8U6niNGUEY-Sqnad-256" vertex="1">
                    <mxGeometry y="30" width="120" height="80" as="geometry"/>
                </mxCell>
                <mxCell id="W_Fl8U6niNGUEY-Sqnad-258" value="" style="group;fillColor=#dae8fc;strokeColor=#6c8ebf;" parent="W_Fl8U6niNGUEY-Sqnad-256" vertex="1" connectable="0">
                    <mxGeometry width="120" height="30" as="geometry"/>
                </mxCell>
                <mxCell id="W_Fl8U6niNGUEY-Sqnad-259" value="flow_from" style="rounded=0;whiteSpace=wrap;html=1;fillColor=#dae8fc;strokeColor=#6c8ebf;" parent="W_Fl8U6niNGUEY-Sqnad-258" vertex="1">
                    <mxGeometry width="54.54545454545454" height="30" as="geometry"/>
                </mxCell>
                <mxCell id="W_Fl8U6niNGUEY-Sqnad-260" value="flow_to" style="rounded=0;whiteSpace=wrap;html=1;fillColor=#dae8fc;strokeColor=#6c8ebf;" parent="W_Fl8U6niNGUEY-Sqnad-258" vertex="1">
                    <mxGeometry x="54.54545454545454" width="65.45454545454545" height="30" as="geometry"/>
                </mxCell>
                <mxCell id="W_Fl8U6niNGUEY-Sqnad-261" value="" style="group;strokeColor=#D5E8D4;" parent="W_Fl8U6niNGUEY-Sqnad-256" vertex="1" connectable="0">
                    <mxGeometry x="-4.27" y="109" width="120.87" height="30" as="geometry"/>
                </mxCell>
                <mxCell id="W_Fl8U6niNGUEY-Sqnad-262" value="res_from" style="rounded=0;whiteSpace=wrap;html=1;fillColor=#D5E8D4;strokeColor=#D5E8D4;" parent="W_Fl8U6niNGUEY-Sqnad-261" vertex="1">
                    <mxGeometry width="60.435" height="30" as="geometry"/>
                </mxCell>
                <mxCell id="W_Fl8U6niNGUEY-Sqnad-263" value="res_to" style="rounded=0;whiteSpace=wrap;html=1;fillColor=#D5E8D4;strokeColor=#D5E8D4;" parent="W_Fl8U6niNGUEY-Sqnad-261" vertex="1">
                    <mxGeometry x="60.435" width="60.435" height="30" as="geometry"/>
                </mxCell>
                <mxCell id="W_Fl8U6niNGUEY-Sqnad-264" value="" style="group" parent="W_Fl8U6niNGUEY-Sqnad-230" vertex="1" connectable="0">
                    <mxGeometry x="341.73" y="230" width="121.73000000000002" height="140" as="geometry"/>
                </mxCell>
                <mxCell id="W_Fl8U6niNGUEY-Sqnad-265" value="l_13" style="ellipse;whiteSpace=wrap;html=1;" parent="W_Fl8U6niNGUEY-Sqnad-264" vertex="1">
                    <mxGeometry y="30" width="120" height="80" as="geometry"/>
                </mxCell>
                <mxCell id="W_Fl8U6niNGUEY-Sqnad-266" value="" style="group;fillColor=#dae8fc;strokeColor=#6c8ebf;" parent="W_Fl8U6niNGUEY-Sqnad-264" vertex="1" connectable="0">
                    <mxGeometry width="110" height="30" as="geometry"/>
                </mxCell>
                <mxCell id="W_Fl8U6niNGUEY-Sqnad-267" value="flow_from" style="rounded=0;whiteSpace=wrap;html=1;fillColor=#dae8fc;strokeColor=#6c8ebf;" parent="W_Fl8U6niNGUEY-Sqnad-266" vertex="1">
                    <mxGeometry width="55.00000000000001" height="30" as="geometry"/>
                </mxCell>
                <mxCell id="W_Fl8U6niNGUEY-Sqnad-268" value="flow_to" style="rounded=0;whiteSpace=wrap;html=1;fillColor=#dae8fc;strokeColor=#6c8ebf;" parent="W_Fl8U6niNGUEY-Sqnad-266" vertex="1">
                    <mxGeometry x="55.00000000000001" width="55.00000000000001" height="30" as="geometry"/>
                </mxCell>
                <mxCell id="W_Fl8U6niNGUEY-Sqnad-269" value="" style="group;fillColor=#D5E8D4;strokeColor=#D5E8D4;" parent="W_Fl8U6niNGUEY-Sqnad-264" vertex="1" connectable="0">
                    <mxGeometry y="109" width="120" height="30" as="geometry"/>
                </mxCell>
                <mxCell id="W_Fl8U6niNGUEY-Sqnad-270" value="res_from" style="rounded=0;whiteSpace=wrap;html=1;fillColor=#D5E8D4;strokeColor=#D5E8D4;" parent="W_Fl8U6niNGUEY-Sqnad-269" vertex="1">
                    <mxGeometry width="60" height="30" as="geometry"/>
                </mxCell>
                <mxCell id="W_Fl8U6niNGUEY-Sqnad-271" value="res_to" style="rounded=0;whiteSpace=wrap;html=1;fillColor=#D5E8D4;strokeColor=#D5E8D4;" parent="W_Fl8U6niNGUEY-Sqnad-269" vertex="1">
                    <mxGeometry x="60" width="60" height="30" as="geometry"/>
                </mxCell>
                <mxCell id="W_Fl8U6niNGUEY-Sqnad-272" value="" style="group" parent="W_Fl8U6niNGUEY-Sqnad-230" vertex="1" connectable="0">
                    <mxGeometry x="531.73" y="230" width="121.73000000000002" height="140" as="geometry"/>
                </mxCell>
                <mxCell id="W_Fl8U6niNGUEY-Sqnad-273" value="l_23" style="ellipse;whiteSpace=wrap;html=1;" parent="W_Fl8U6niNGUEY-Sqnad-272" vertex="1">
                    <mxGeometry y="30" width="120" height="80" as="geometry"/>
                </mxCell>
                <mxCell id="W_Fl8U6niNGUEY-Sqnad-274" value="" style="group;fillColor=#dae8fc;strokeColor=#6c8ebf;" parent="W_Fl8U6niNGUEY-Sqnad-272" vertex="1" connectable="0">
                    <mxGeometry width="110" height="30" as="geometry"/>
                </mxCell>
                <mxCell id="W_Fl8U6niNGUEY-Sqnad-275" value="flow_from" style="rounded=0;whiteSpace=wrap;html=1;fillColor=#dae8fc;strokeColor=#6c8ebf;" parent="W_Fl8U6niNGUEY-Sqnad-274" vertex="1">
                    <mxGeometry width="55.00000000000001" height="30" as="geometry"/>
                </mxCell>
                <mxCell id="W_Fl8U6niNGUEY-Sqnad-276" value="flow_to" style="rounded=0;whiteSpace=wrap;html=1;fillColor=#dae8fc;strokeColor=#6c8ebf;" parent="W_Fl8U6niNGUEY-Sqnad-274" vertex="1">
                    <mxGeometry x="55.00000000000001" width="55.00000000000001" height="30" as="geometry"/>
                </mxCell>
                <mxCell id="W_Fl8U6niNGUEY-Sqnad-277" value="" style="group;fillColor=#ffe6cc;strokeColor=#d79b00;" parent="W_Fl8U6niNGUEY-Sqnad-272" vertex="1" connectable="0">
                    <mxGeometry y="110" width="120" height="30" as="geometry"/>
                </mxCell>
                <mxCell id="W_Fl8U6niNGUEY-Sqnad-278" value="res_from" style="rounded=0;whiteSpace=wrap;html=1;fillColor=#D5E8D4;strokeColor=#D5E8D4;" parent="W_Fl8U6niNGUEY-Sqnad-277" vertex="1">
                    <mxGeometry width="60" height="30" as="geometry"/>
                </mxCell>
                <mxCell id="W_Fl8U6niNGUEY-Sqnad-279" value="res_to" style="rounded=0;whiteSpace=wrap;html=1;fillColor=#D5E8D4;strokeColor=#D5E8D4;" parent="W_Fl8U6niNGUEY-Sqnad-277" vertex="1">
                    <mxGeometry x="60" width="60" height="30" as="geometry"/>
                </mxCell>
                <mxCell id="W_Fl8U6niNGUEY-Sqnad-280" value="" style="group" parent="W_Fl8U6niNGUEY-Sqnad-230" vertex="1" connectable="0">
                    <mxGeometry x="790" y="510" width="80" height="110" as="geometry"/>
                </mxCell>
                <mxCell id="W_Fl8U6niNGUEY-Sqnad-281" value="d_2_resint" style="ellipse;whiteSpace=wrap;html=1;aspect=fixed;fillColor=#d5e8d4;strokeColor=#82b366;" parent="W_Fl8U6niNGUEY-Sqnad-280" vertex="1">
                    <mxGeometry y="30" width="80" height="80" as="geometry"/>
                </mxCell>
                <mxCell id="W_Fl8U6niNGUEY-Sqnad-307" value="res_di" style="rounded=0;whiteSpace=wrap;html=1;fillColor=#d5e8d4;strokeColor=#82b366;" parent="W_Fl8U6niNGUEY-Sqnad-280" vertex="1">
                    <mxGeometry x="15" width="50" height="30" as="geometry"/>
                </mxCell>
                <mxCell id="W_Fl8U6niNGUEY-Sqnad-283" value="" style="group" parent="W_Fl8U6niNGUEY-Sqnad-230" vertex="1" connectable="0">
                    <mxGeometry x="-74" y="490" width="86" height="130" as="geometry"/>
                </mxCell>
                <mxCell id="W_Fl8U6niNGUEY-Sqnad-284" value="d_1_resint" style="ellipse;whiteSpace=wrap;html=1;aspect=fixed;fillColor=#D5E8D4;strokeColor=#D5E8D4;" parent="W_Fl8U6niNGUEY-Sqnad-283" vertex="1">
                    <mxGeometry y="50" width="80" height="80" as="geometry"/>
                </mxCell>
                <mxCell id="W_Fl8U6niNGUEY-Sqnad-310" value="res_di" style="rounded=0;whiteSpace=wrap;html=1;fillColor=#D5E8D4;strokeColor=#D5E8D4;" parent="W_Fl8U6niNGUEY-Sqnad-283" vertex="1">
                    <mxGeometry x="11.730000000000011" y="20" width="50" height="30" as="geometry"/>
                </mxCell>
                <mxCell id="W_Fl8U6niNGUEY-Sqnad-285" value="" style="group" parent="W_Fl8U6niNGUEY-Sqnad-230" vertex="1" connectable="0">
                    <mxGeometry x="906" y="560" width="100" height="90" as="geometry"/>
                </mxCell>
                <mxCell id="W_Fl8U6niNGUEY-Sqnad-286" value="demand_resint_2" style="rounded=1;whiteSpace=wrap;html=1;" parent="W_Fl8U6niNGUEY-Sqnad-285" vertex="1">
                    <mxGeometry y="60" width="100" height="30" as="geometry"/>
                </mxCell>
                <mxCell id="W_Fl8U6niNGUEY-Sqnad-287" value="res_d" style="rounded=0;whiteSpace=wrap;html=1;fillColor=#d5e8d4;strokeColor=#82b366;" parent="W_Fl8U6niNGUEY-Sqnad-285" vertex="1">
                    <mxGeometry x="15" y="30" width="50" height="30" as="geometry"/>
                </mxCell>
                <mxCell id="W_Fl8U6niNGUEY-Sqnad-288" value="" style="endArrow=classic;html=1;rounded=0;entryX=1;entryY=1;entryDx=0;entryDy=0;" parent="W_Fl8U6niNGUEY-Sqnad-230" target="W_Fl8U6niNGUEY-Sqnad-239" edge="1">
                    <mxGeometry width="50" height="50" relative="1" as="geometry">
                        <mxPoint x="976" y="250" as="sourcePoint"/>
                        <mxPoint x="1126" y="260" as="targetPoint"/>
                    </mxGeometry>
                </mxCell>
                <mxCell id="W_Fl8U6niNGUEY-Sqnad-289" value="" style="endArrow=classic;html=1;rounded=0;exitX=0.75;exitY=0;exitDx=0;exitDy=0;" parent="W_Fl8U6niNGUEY-Sqnad-230" source="W_Fl8U6niNGUEY-Sqnad-246" edge="1">
                    <mxGeometry width="50" height="50" relative="1" as="geometry">
                        <mxPoint x="445" y="113" as="sourcePoint"/>
                        <mxPoint x="216" y="90" as="targetPoint"/>
                    </mxGeometry>
                </mxCell>
                <mxCell id="W_Fl8U6niNGUEY-Sqnad-290" value="" style="endArrow=classic;html=1;rounded=0;entryX=1;entryY=0.25;entryDx=0;entryDy=0;exitX=0.25;exitY=0;exitDx=0;exitDy=0;" parent="W_Fl8U6niNGUEY-Sqnad-230" source="W_Fl8U6niNGUEY-Sqnad-254" target="W_Fl8U6niNGUEY-Sqnad-239" edge="1">
                    <mxGeometry width="50" height="50" relative="1" as="geometry">
                        <mxPoint x="1156" y="80" as="sourcePoint"/>
                        <mxPoint x="1116" y="250" as="targetPoint"/>
                    </mxGeometry>
                </mxCell>
                <mxCell id="W_Fl8U6niNGUEY-Sqnad-291" value="" style="endArrow=classic;html=1;rounded=0;exitX=0.5;exitY=0;exitDx=0;exitDy=0;entryX=0.25;entryY=1;entryDx=0;entryDy=0;" parent="W_Fl8U6niNGUEY-Sqnad-230" source="W_Fl8U6niNGUEY-Sqnad-260" target="W_Fl8U6niNGUEY-Sqnad-236" edge="1">
                    <mxGeometry width="50" height="50" relative="1" as="geometry">
                        <mxPoint x="249" y="300" as="sourcePoint"/>
                        <mxPoint x="246" y="120" as="targetPoint"/>
                    </mxGeometry>
                </mxCell>
                <mxCell id="W_Fl8U6niNGUEY-Sqnad-292" value="" style="endArrow=classic;html=1;rounded=0;exitX=0.5;exitY=0;exitDx=0;exitDy=0;entryX=0.75;entryY=1;entryDx=0;entryDy=0;" parent="W_Fl8U6niNGUEY-Sqnad-230" source="W_Fl8U6niNGUEY-Sqnad-267" target="W_Fl8U6niNGUEY-Sqnad-233" edge="1">
                    <mxGeometry width="50" height="50" relative="1" as="geometry">
                        <mxPoint x="249" y="300" as="sourcePoint"/>
                        <mxPoint x="246" y="120" as="targetPoint"/>
                    </mxGeometry>
                </mxCell>
                <mxCell id="W_Fl8U6niNGUEY-Sqnad-293" value="" style="endArrow=classic;html=1;rounded=0;exitX=0.5;exitY=0;exitDx=0;exitDy=0;entryX=0.75;entryY=1;entryDx=0;entryDy=0;" parent="W_Fl8U6niNGUEY-Sqnad-230" source="W_Fl8U6niNGUEY-Sqnad-275" target="W_Fl8U6niNGUEY-Sqnad-236" edge="1">
                    <mxGeometry width="50" height="50" relative="1" as="geometry">
                        <mxPoint x="465" y="300" as="sourcePoint"/>
                        <mxPoint x="556" y="110" as="targetPoint"/>
                    </mxGeometry>
                </mxCell>
                <mxCell id="W_Fl8U6niNGUEY-Sqnad-294" value="" style="endArrow=classic;html=1;rounded=0;entryX=1;entryY=0.5;entryDx=0;entryDy=0;exitX=0;exitY=0.5;exitDx=0;exitDy=0;" parent="W_Fl8U6niNGUEY-Sqnad-230" source="W_Fl8U6niNGUEY-Sqnad-242" target="W_Fl8U6niNGUEY-Sqnad-236" edge="1">
                    <mxGeometry width="50" height="50" relative="1" as="geometry">
                        <mxPoint x="986" y="260" as="sourcePoint"/>
                        <mxPoint x="605" y="120" as="targetPoint"/>
                    </mxGeometry>
                </mxCell>
                <mxCell id="W_Fl8U6niNGUEY-Sqnad-295" value="" style="endArrow=classic;html=1;rounded=0;exitX=0.75;exitY=1;exitDx=0;exitDy=0;entryX=0.5;entryY=0;entryDx=0;entryDy=0;" parent="W_Fl8U6niNGUEY-Sqnad-230" source="W_Fl8U6niNGUEY-Sqnad-247" target="W_Fl8U6niNGUEY-Sqnad-310" edge="1">
                    <mxGeometry width="50" height="50" relative="1" as="geometry">
                        <mxPoint x="890" y="350" as="sourcePoint"/>
                        <mxPoint x="96" y="490" as="targetPoint"/>
                    </mxGeometry>
                </mxCell>
                <mxCell id="W_Fl8U6niNGUEY-Sqnad-296" value="" style="group" parent="W_Fl8U6niNGUEY-Sqnad-230" vertex="1" connectable="0">
                    <mxGeometry x="476" y="510" width="80" height="110" as="geometry"/>
                </mxCell>
                <mxCell id="W_Fl8U6niNGUEY-Sqnad-297" value="d_2_resexc" style="ellipse;whiteSpace=wrap;html=1;aspect=fixed;fillColor=#1D911D;strokeColor=#82b366;" parent="W_Fl8U6niNGUEY-Sqnad-296" vertex="1">
                    <mxGeometry y="30" width="80" height="80" as="geometry"/>
                </mxCell>
                <mxCell id="W_Fl8U6niNGUEY-Sqnad-298" value="res_di" style="rounded=0;whiteSpace=wrap;html=1;fillColor=#1D911D;strokeColor=#82b366;" parent="W_Fl8U6niNGUEY-Sqnad-296" vertex="1">
                    <mxGeometry x="15" width="50" height="30" as="geometry"/>
                </mxCell>
                <mxCell id="W_Fl8U6niNGUEY-Sqnad-300" value="demand_resexc_2" style="rounded=1;whiteSpace=wrap;html=1;" parent="W_Fl8U6niNGUEY-Sqnad-230" vertex="1">
                    <mxGeometry x="562" y="620" width="114" height="30" as="geometry"/>
                </mxCell>
                <mxCell id="W_Fl8U6niNGUEY-Sqnad-301" value="flow_d" style="rounded=0;whiteSpace=wrap;html=1;fillColor=#d5e8d4;strokeColor=#82b366;" parent="W_Fl8U6niNGUEY-Sqnad-230" vertex="1">
                    <mxGeometry x="577" y="590" width="50" height="30" as="geometry"/>
                </mxCell>
                <mxCell id="W_Fl8U6niNGUEY-Sqnad-302" value="" style="endArrow=classic;html=1;rounded=0;entryX=0.5;entryY=1;entryDx=0;entryDy=0;exitX=0.75;exitY=0;exitDx=0;exitDy=0;" parent="W_Fl8U6niNGUEY-Sqnad-230" source="W_Fl8U6niNGUEY-Sqnad-276" target="W_Fl8U6niNGUEY-Sqnad-239" edge="1">
                    <mxGeometry width="50" height="50" relative="1" as="geometry">
                        <mxPoint x="656" y="290" as="sourcePoint"/>
                        <mxPoint x="433" y="120" as="targetPoint"/>
                    </mxGeometry>
                </mxCell>
                <mxCell id="W_Fl8U6niNGUEY-Sqnad-303" value="" style="endArrow=classic;html=1;rounded=0;entryX=1;entryY=0.75;entryDx=0;entryDy=0;exitX=0.5;exitY=0;exitDx=0;exitDy=0;" parent="W_Fl8U6niNGUEY-Sqnad-230" source="W_Fl8U6niNGUEY-Sqnad-301" target="W_Fl8U6niNGUEY-Sqnad-298" edge="1">
                    <mxGeometry width="50" height="50" relative="1" as="geometry">
                        <mxPoint x="581" y="575" as="sourcePoint"/>
                        <mxPoint x="521" y="692" as="targetPoint"/>
                    </mxGeometry>
                </mxCell>
                <mxCell id="W_Fl8U6niNGUEY-Sqnad-304" value="" style="endArrow=classic;html=1;rounded=0;exitX=0.5;exitY=1;exitDx=0;exitDy=0;entryX=1;entryY=0;entryDx=0;entryDy=0;" parent="W_Fl8U6niNGUEY-Sqnad-230" source="W_Fl8U6niNGUEY-Sqnad-251" target="W_Fl8U6niNGUEY-Sqnad-307" edge="1">
                    <mxGeometry width="50" height="50" relative="1" as="geometry">
                        <mxPoint x="890" y="350" as="sourcePoint"/>
                        <mxPoint x="846" y="520" as="targetPoint"/>
                    </mxGeometry>
                </mxCell>
                <mxCell id="W_Fl8U6niNGUEY-Sqnad-305" value="" style="endArrow=classic;html=1;rounded=0;exitX=0.5;exitY=0;exitDx=0;exitDy=0;entryX=1;entryY=0.5;entryDx=0;entryDy=0;" parent="W_Fl8U6niNGUEY-Sqnad-230" source="W_Fl8U6niNGUEY-Sqnad-287" target="W_Fl8U6niNGUEY-Sqnad-307" edge="1">
                    <mxGeometry width="50" height="50" relative="1" as="geometry">
                        <mxPoint x="1118" y="350" as="sourcePoint"/>
                        <mxPoint x="863" y="530" as="targetPoint"/>
                    </mxGeometry>
                </mxCell>
                <mxCell id="W_Fl8U6niNGUEY-Sqnad-306" value="" style="endArrow=classic;html=1;rounded=0;exitX=0.25;exitY=1;exitDx=0;exitDy=0;entryX=1;entryY=0.25;entryDx=0;entryDy=0;" parent="W_Fl8U6niNGUEY-Sqnad-230" source="W_Fl8U6niNGUEY-Sqnad-255" target="W_Fl8U6niNGUEY-Sqnad-307" edge="1">
                    <mxGeometry width="50" height="50" relative="1" as="geometry">
                        <mxPoint x="1010" y="350" as="sourcePoint"/>
                        <mxPoint x="856" y="530" as="targetPoint"/>
                    </mxGeometry>
                </mxCell>
                <mxCell id="W_Fl8U6niNGUEY-Sqnad-308" value="" style="endArrow=classic;html=1;rounded=0;exitX=0.5;exitY=1;exitDx=0;exitDy=0;entryX=0.75;entryY=0;entryDx=0;entryDy=0;" parent="W_Fl8U6niNGUEY-Sqnad-230" source="W_Fl8U6niNGUEY-Sqnad-243" target="W_Fl8U6niNGUEY-Sqnad-307" edge="1">
                    <mxGeometry width="50" height="50" relative="1" as="geometry">
                        <mxPoint x="986" y="260" as="sourcePoint"/>
                        <mxPoint x="856" y="510" as="targetPoint"/>
                    </mxGeometry>
                </mxCell>
                <mxCell id="W_Fl8U6niNGUEY-Sqnad-312" value="" style="endArrow=classic;html=1;rounded=0;exitX=0.5;exitY=1;exitDx=0;exitDy=0;entryX=0.5;entryY=0;entryDx=0;entryDy=0;" parent="W_Fl8U6niNGUEY-Sqnad-230" source="W_Fl8U6niNGUEY-Sqnad-262" target="W_Fl8U6niNGUEY-Sqnad-338" edge="1">
                    <mxGeometry width="50" height="50" relative="1" as="geometry">
                        <mxPoint x="81" y="505" as="sourcePoint"/>
                        <mxPoint x="1.2699999999999818" y="502.75" as="targetPoint"/>
                    </mxGeometry>
                </mxCell>
                <mxCell id="W_Fl8U6niNGUEY-Sqnad-313" value="" style="endArrow=classic;html=1;rounded=0;exitX=0.5;exitY=1;exitDx=0;exitDy=0;entryX=0.75;entryY=0;entryDx=0;entryDy=0;" parent="W_Fl8U6niNGUEY-Sqnad-230" source="W_Fl8U6niNGUEY-Sqnad-270" target="W_Fl8U6niNGUEY-Sqnad-338" edge="1">
                    <mxGeometry width="50" height="50" relative="1" as="geometry">
                        <mxPoint x="81" y="543" as="sourcePoint"/>
                        <mxPoint x="1.2699999999999818" y="532.75" as="targetPoint"/>
                    </mxGeometry>
                </mxCell>
                <mxCell id="W_Fl8U6niNGUEY-Sqnad-314" value="" style="endArrow=classic;html=1;rounded=0;entryX=0;entryY=0;entryDx=0;entryDy=0;" parent="W_Fl8U6niNGUEY-Sqnad-230" source="W_Fl8U6niNGUEY-Sqnad-263" target="W_Fl8U6niNGUEY-Sqnad-298" edge="1">
                    <mxGeometry width="50" height="50" relative="1" as="geometry">
                        <mxPoint x="81" y="475" as="sourcePoint"/>
                        <mxPoint x="396" y="550" as="targetPoint"/>
                    </mxGeometry>
                </mxCell>
                <mxCell id="W_Fl8U6niNGUEY-Sqnad-315" value="" style="endArrow=classic;html=1;rounded=0;entryX=0.5;entryY=0;entryDx=0;entryDy=0;exitX=0.25;exitY=1;exitDx=0;exitDy=0;" parent="W_Fl8U6niNGUEY-Sqnad-230" source="W_Fl8U6niNGUEY-Sqnad-271" target="W_Fl8U6niNGUEY-Sqnad-298" edge="1">
                    <mxGeometry width="50" height="50" relative="1" as="geometry">
                        <mxPoint x="288" y="379" as="sourcePoint"/>
                        <mxPoint x="561" y="640" as="targetPoint"/>
                    </mxGeometry>
                </mxCell>
                <mxCell id="W_Fl8U6niNGUEY-Sqnad-322" value="conv_res_Int_ext_2" style="rounded=1;whiteSpace=wrap;html=1;" parent="W_Fl8U6niNGUEY-Sqnad-230" vertex="1">
                    <mxGeometry x="629" y="535.5" width="111" height="30" as="geometry"/>
                </mxCell>
                <mxCell id="W_Fl8U6niNGUEY-Sqnad-325" value="" style="endArrow=classic;html=1;rounded=0;entryX=0;entryY=0.5;entryDx=0;entryDy=0;exitX=1;exitY=0.5;exitDx=0;exitDy=0;" parent="W_Fl8U6niNGUEY-Sqnad-230" source="W_Fl8U6niNGUEY-Sqnad-329" target="W_Fl8U6niNGUEY-Sqnad-307" edge="1">
                    <mxGeometry width="50" height="50" relative="1" as="geometry">
                        <mxPoint x="650" y="515.5" as="sourcePoint"/>
                        <mxPoint x="805" y="533" as="targetPoint"/>
                    </mxGeometry>
                </mxCell>
                <mxCell id="W_Fl8U6niNGUEY-Sqnad-328" value="res_to" style="rounded=0;whiteSpace=wrap;html=1;fillColor=#D5E8D4;strokeColor=#D5E8D4;" parent="W_Fl8U6niNGUEY-Sqnad-230" vertex="1">
                    <mxGeometry x="626" y="518.5" width="50" height="17" as="geometry"/>
                </mxCell>
                <mxCell id="W_Fl8U6niNGUEY-Sqnad-329" value="res_from" style="rounded=0;whiteSpace=wrap;html=1;fillColor=#d5e8d4;strokeColor=#82b366;" parent="W_Fl8U6niNGUEY-Sqnad-230" vertex="1">
                    <mxGeometry x="676" y="518.5" width="50" height="17" as="geometry"/>
                </mxCell>
                <mxCell id="W_Fl8U6niNGUEY-Sqnad-330" value="" style="endArrow=classic;html=1;rounded=0;entryX=1;entryY=0.5;entryDx=0;entryDy=0;exitX=0;exitY=0.5;exitDx=0;exitDy=0;" parent="W_Fl8U6niNGUEY-Sqnad-230" source="W_Fl8U6niNGUEY-Sqnad-328" target="W_Fl8U6niNGUEY-Sqnad-298" edge="1">
                    <mxGeometry width="50" height="50" relative="1" as="geometry">
                        <mxPoint x="601" y="590.5" as="sourcePoint"/>
                        <mxPoint x="561" y="548.5" as="targetPoint"/>
                    </mxGeometry>
                </mxCell>
                <mxCell id="W_Fl8U6niNGUEY-Sqnad-331" value="conv_res_Int_ext_1" style="rounded=1;whiteSpace=wrap;html=1;" parent="W_Fl8U6niNGUEY-Sqnad-230" vertex="1">
                    <mxGeometry x="65" y="535.5" width="111" height="30" as="geometry"/>
                </mxCell>
                <mxCell id="W_Fl8U6niNGUEY-Sqnad-332" value="" style="endArrow=classic;html=1;rounded=0;entryX=0;entryY=0.5;entryDx=0;entryDy=0;exitX=1;exitY=0.5;exitDx=0;exitDy=0;" parent="W_Fl8U6niNGUEY-Sqnad-230" source="W_Fl8U6niNGUEY-Sqnad-334" target="W_Fl8U6niNGUEY-Sqnad-338" edge="1">
                    <mxGeometry width="50" height="50" relative="1" as="geometry">
                        <mxPoint x="206" y="537" as="sourcePoint"/>
                        <mxPoint x="248" y="536.5" as="targetPoint"/>
                    </mxGeometry>
                </mxCell>
                <mxCell id="W_Fl8U6niNGUEY-Sqnad-333" value="res_from" style="rounded=0;whiteSpace=wrap;html=1;fillColor=#D5E8D4;strokeColor=#82B366;" parent="W_Fl8U6niNGUEY-Sqnad-230" vertex="1">
                    <mxGeometry x="62" y="518.5" width="50" height="17" as="geometry"/>
                </mxCell>
                <mxCell id="W_Fl8U6niNGUEY-Sqnad-334" value="res_to" style="rounded=0;whiteSpace=wrap;html=1;fillColor=#D5E8D4;strokeColor=#82b366;" parent="W_Fl8U6niNGUEY-Sqnad-230" vertex="1">
                    <mxGeometry x="112" y="518.5" width="50" height="17" as="geometry"/>
                </mxCell>
                <mxCell id="W_Fl8U6niNGUEY-Sqnad-335" value="" style="endArrow=classic;html=1;rounded=0;entryX=1;entryY=0.5;entryDx=0;entryDy=0;exitX=0;exitY=0.5;exitDx=0;exitDy=0;" parent="W_Fl8U6niNGUEY-Sqnad-230" source="W_Fl8U6niNGUEY-Sqnad-333" target="W_Fl8U6niNGUEY-Sqnad-310" edge="1">
                    <mxGeometry width="50" height="50" relative="1" as="geometry">
                        <mxPoint x="33.730000000000004" y="534.75" as="sourcePoint"/>
                        <mxPoint x="-16.27" y="532.75" as="targetPoint"/>
                    </mxGeometry>
                </mxCell>
                <mxCell id="W_Fl8U6niNGUEY-Sqnad-336" value="" style="group" parent="W_Fl8U6niNGUEY-Sqnad-230" vertex="1" connectable="0">
                    <mxGeometry x="234" y="510" width="80" height="110" as="geometry"/>
                </mxCell>
                <mxCell id="W_Fl8U6niNGUEY-Sqnad-337" value="d_1_resexc" style="ellipse;whiteSpace=wrap;html=1;aspect=fixed;fillColor=#1D911D;strokeColor=#82b366;" parent="W_Fl8U6niNGUEY-Sqnad-336" vertex="1">
                    <mxGeometry y="30" width="80" height="80" as="geometry"/>
                </mxCell>
                <mxCell id="W_Fl8U6niNGUEY-Sqnad-338" value="res_di" style="rounded=0;whiteSpace=wrap;html=1;fillColor=#1D911D;strokeColor=#82b366;" parent="W_Fl8U6niNGUEY-Sqnad-336" vertex="1">
                    <mxGeometry x="15" width="50" height="30" as="geometry"/>
                </mxCell>
                <mxCell id="W_Fl8U6niNGUEY-Sqnad-339" value="demand_resexc_1" style="rounded=1;whiteSpace=wrap;html=1;" parent="W_Fl8U6niNGUEY-Sqnad-230" vertex="1">
                    <mxGeometry x="116" y="621" width="106" height="30" as="geometry"/>
                </mxCell>
                <mxCell id="W_Fl8U6niNGUEY-Sqnad-340" value="flow_d" style="rounded=0;whiteSpace=wrap;html=1;fillColor=#d5e8d4;strokeColor=#82b366;" parent="W_Fl8U6niNGUEY-Sqnad-230" vertex="1">
                    <mxGeometry x="131" y="591" width="50" height="30" as="geometry"/>
                </mxCell>
                <mxCell id="W_Fl8U6niNGUEY-Sqnad-341" value="" style="endArrow=classic;html=1;rounded=0;entryX=0;entryY=0.75;entryDx=0;entryDy=0;exitX=0.5;exitY=0;exitDx=0;exitDy=0;" parent="W_Fl8U6niNGUEY-Sqnad-230" source="W_Fl8U6niNGUEY-Sqnad-340" target="W_Fl8U6niNGUEY-Sqnad-338" edge="1">
                    <mxGeometry width="50" height="50" relative="1" as="geometry">
                        <mxPoint x="276" y="735.5" as="sourcePoint"/>
                        <mxPoint x="219" y="707.5" as="targetPoint"/>
                    </mxGeometry>
                </mxCell>
                <mxCell id="W_Fl8U6niNGUEY-Sqnad-316" value="" style="endArrow=classic;html=1;rounded=0;exitX=0.5;exitY=0;exitDx=0;exitDy=0;" parent="1" source="W_Fl8U6niNGUEY-Sqnad-259" edge="1">
                    <mxGeometry width="50" height="50" relative="1" as="geometry">
                        <mxPoint x="516.73" y="360" as="sourcePoint"/>
                        <mxPoint x="689.73" y="270" as="targetPoint"/>
                    </mxGeometry>
                </mxCell>
                <mxCell id="W_Fl8U6niNGUEY-Sqnad-317" value="" style="endArrow=classic;html=1;rounded=0;exitX=0.5;exitY=0;exitDx=0;exitDy=0;" parent="1" source="W_Fl8U6niNGUEY-Sqnad-268" edge="1">
                    <mxGeometry width="50" height="50" relative="1" as="geometry">
                        <mxPoint x="868.73" y="460" as="sourcePoint"/>
                        <mxPoint x="999.73" y="260" as="targetPoint"/>
                    </mxGeometry>
                </mxCell>
                <mxCell id="W_Fl8U6niNGUEY-Sqnad-318" value="" style="group" parent="1" vertex="1" connectable="0">
                    <mxGeometry x="290" y="772.25" width="90" height="90" as="geometry"/>
                </mxCell>
                <mxCell id="W_Fl8U6niNGUEY-Sqnad-319" value="demand_resint_1" style="rounded=1;whiteSpace=wrap;html=1;" parent="W_Fl8U6niNGUEY-Sqnad-318" vertex="1">
                    <mxGeometry x="-30.27" y="5.5" width="100.27" height="30" as="geometry"/>
                </mxCell>
                <mxCell id="W_Fl8U6niNGUEY-Sqnad-395" value="res_d" style="rounded=0;whiteSpace=wrap;html=1;fillColor=#d5e8d4;strokeColor=#82b366;" parent="W_Fl8U6niNGUEY-Sqnad-318" vertex="1">
                    <mxGeometry x="-10.269999999999982" y="-22.25" width="50" height="30" as="geometry"/>
                </mxCell>
                <mxCell id="W_Fl8U6niNGUEY-Sqnad-321" value="" style="endArrow=classic;html=1;rounded=0;entryX=0;entryY=0.75;entryDx=0;entryDy=0;" parent="1" source="W_Fl8U6niNGUEY-Sqnad-395" target="W_Fl8U6niNGUEY-Sqnad-310" edge="1">
                    <mxGeometry width="50" height="50" relative="1" as="geometry">
                        <mxPoint x="332.2300000000005" y="740" as="sourcePoint"/>
                        <mxPoint x="1249" y="707.25" as="targetPoint"/>
                    </mxGeometry>
                </mxCell>
                <mxCell id="W_Fl8U6niNGUEY-Sqnad-396" value="Thermal : Model" style="swimlane;fontStyle=0;childLayout=stackLayout;horizontal=1;startSize=30;horizontalStack=0;resizeParent=1;resizeParentMax=0;resizeLast=0;collapsible=1;marginBottom=0;whiteSpace=wrap;html=1;fillColor=#CCFFCC;" parent="1" vertex="1">
                    <mxGeometry x="120" y="-780" width="240" height="480" as="geometry"/>
                </mxCell>
                <mxCell id="W_Fl8U6niNGUEY-Sqnad-397" value="p : Variable" style="text;strokeColor=none;fillColor=none;align=left;verticalAlign=middle;spacingLeft=4;spacingRight=4;overflow=hidden;points=[[0,0.5],[1,0.5]];portConstraint=eastwest;rotatable=0;whiteSpace=wrap;html=1;" parent="W_Fl8U6niNGUEY-Sqnad-396" vertex="1">
                    <mxGeometry y="30" width="240" height="30" as="geometry"/>
                </mxCell>
                <mxCell id="W_Fl8U6niNGUEY-Sqnad-758" value="r{i}_up : Variable (reserve participation)" style="text;strokeColor=none;fillColor=none;align=left;verticalAlign=middle;spacingLeft=4;spacingRight=4;overflow=hidden;points=[[0,0.5],[1,0.5]];portConstraint=eastwest;rotatable=0;whiteSpace=wrap;html=1;" parent="W_Fl8U6niNGUEY-Sqnad-396" vertex="1">
                    <mxGeometry y="60" width="240" height="30" as="geometry"/>
                </mxCell>
                <mxCell id="W_Fl8U6niNGUEY-Sqnad-757" value="r{i}_down : Variable (reserve participation)" style="text;strokeColor=none;fillColor=none;align=left;verticalAlign=middle;spacingLeft=4;spacingRight=4;overflow=hidden;points=[[0,0.5],[1,0.5]];portConstraint=eastwest;rotatable=0;whiteSpace=wrap;html=1;" parent="W_Fl8U6niNGUEY-Sqnad-396" vertex="1">
                    <mxGeometry y="90" width="240" height="30" as="geometry"/>
                </mxCell>
                <mxCell id="W_Fl8U6niNGUEY-Sqnad-813" value="" style="endArrow=none;dashed=1;html=1;rounded=0;exitX=0;exitY=0.5;exitDx=0;exitDy=0;entryX=1;entryY=0.5;entryDx=0;entryDy=0;" parent="W_Fl8U6niNGUEY-Sqnad-396" edge="1">
                    <mxGeometry width="50" height="50" relative="1" as="geometry">
                        <mxPoint y="120.00000000000006" as="sourcePoint"/>
                        <mxPoint x="200" y="120.00000000000006" as="targetPoint"/>
                    </mxGeometry>
                </mxCell>
                <mxCell id="W_Fl8U6niNGUEY-Sqnad-727" value="pmax : Parameter" style="text;strokeColor=none;fillColor=none;align=left;verticalAlign=middle;spacingLeft=4;spacingRight=4;overflow=hidden;points=[[0,0.5],[1,0.5]];portConstraint=eastwest;rotatable=0;whiteSpace=wrap;html=1;" parent="W_Fl8U6niNGUEY-Sqnad-396" vertex="1">
                    <mxGeometry y="120" width="240" height="30" as="geometry"/>
                </mxCell>
                <mxCell id="W_Fl8U6niNGUEY-Sqnad-760" value="r{i}_up_max : Parameter" style="text;strokeColor=none;fillColor=none;align=left;verticalAlign=middle;spacingLeft=4;spacingRight=4;overflow=hidden;points=[[0,0.5],[1,0.5]];portConstraint=eastwest;rotatable=0;whiteSpace=wrap;html=1;" parent="W_Fl8U6niNGUEY-Sqnad-396" vertex="1">
                    <mxGeometry y="150" width="240" height="30" as="geometry"/>
                </mxCell>
                <mxCell id="W_Fl8U6niNGUEY-Sqnad-759" value="r{i}_down_max : Parameter" style="text;strokeColor=none;fillColor=none;align=left;verticalAlign=middle;spacingLeft=4;spacingRight=4;overflow=hidden;points=[[0,0.5],[1,0.5]];portConstraint=eastwest;rotatable=0;whiteSpace=wrap;html=1;" parent="W_Fl8U6niNGUEY-Sqnad-396" vertex="1">
                    <mxGeometry y="180" width="240" height="30" as="geometry"/>
                </mxCell>
                <mxCell id="5" value="" style="endArrow=none;dashed=1;html=1;rounded=0;exitX=0;exitY=0.5;exitDx=0;exitDy=0;entryX=1;entryY=0.5;entryDx=0;entryDy=0;" edge="1" parent="W_Fl8U6niNGUEY-Sqnad-396">
                    <mxGeometry width="50" height="50" relative="1" as="geometry">
                        <mxPoint y="209.99999999999977" as="sourcePoint"/>
                        <mxPoint x="200" y="209.99999999999977" as="targetPoint"/>
                    </mxGeometry>
                </mxCell>
                <mxCell id="W_Fl8U6niNGUEY-Sqnad-726" value="&amp;nbsp;p+ sum(r{i}_up) &amp;lt;=&amp;nbsp; pmax" style="text;strokeColor=none;fillColor=none;align=left;verticalAlign=middle;spacingLeft=4;spacingRight=4;overflow=hidden;points=[[0,0.5],[1,0.5]];portConstraint=eastwest;rotatable=0;whiteSpace=wrap;html=1;" parent="W_Fl8U6niNGUEY-Sqnad-396" vertex="1">
                    <mxGeometry y="210" width="240" height="30" as="geometry"/>
                </mxCell>
                <mxCell id="W_Fl8U6niNGUEY-Sqnad-751" value="&lt;span style=&quot;color: rgb(0, 0, 0); font-family: Helvetica; font-size: 12px; font-style: normal; font-variant-ligatures: normal; font-variant-caps: normal; font-weight: 400; letter-spacing: normal; orphans: 2; text-align: left; text-indent: 0px; text-transform: none; widows: 2; word-spacing: 0px; -webkit-text-stroke-width: 0px; background-color: rgb(251, 251, 251); text-decoration-thickness: initial; text-decoration-style: initial; text-decoration-color: initial; float: none; display: inline !important;&quot;&gt;0 &amp;lt;= p - ( sum(r{i}_down) )&lt;br&gt;&lt;/span&gt;" style="text;strokeColor=none;fillColor=none;align=left;verticalAlign=middle;spacingLeft=4;spacingRight=4;overflow=hidden;points=[[0,0.5],[1,0.5]];portConstraint=eastwest;rotatable=0;whiteSpace=wrap;html=1;" parent="W_Fl8U6niNGUEY-Sqnad-396" vertex="1">
                    <mxGeometry y="240" width="240" height="30" as="geometry"/>
                </mxCell>
                <mxCell id="W_Fl8U6niNGUEY-Sqnad-763" value="0 &amp;lt;= r{i}_up&amp;nbsp;&amp;lt;= r{i}_up_max" style="text;strokeColor=none;fillColor=none;align=left;verticalAlign=middle;spacingLeft=4;spacingRight=4;overflow=hidden;points=[[0,0.5],[1,0.5]];portConstraint=eastwest;rotatable=0;whiteSpace=wrap;html=1;" parent="W_Fl8U6niNGUEY-Sqnad-396" vertex="1">
                    <mxGeometry y="270" width="240" height="30" as="geometry"/>
                </mxCell>
                <mxCell id="W_Fl8U6niNGUEY-Sqnad-762" value="0 &amp;lt;= r{i}_down &amp;lt;= r{i}_down_max" style="text;strokeColor=none;fillColor=none;align=left;verticalAlign=middle;spacingLeft=4;spacingRight=4;overflow=hidden;points=[[0,0.5],[1,0.5]];portConstraint=eastwest;rotatable=0;whiteSpace=wrap;html=1;" parent="W_Fl8U6niNGUEY-Sqnad-396" vertex="1">
                    <mxGeometry y="300" width="240" height="30" as="geometry"/>
                </mxCell>
                <mxCell id="6" value="" style="endArrow=none;dashed=1;html=1;rounded=0;exitX=0;exitY=0.5;exitDx=0;exitDy=0;entryX=1;entryY=0.5;entryDx=0;entryDy=0;" edge="1" parent="W_Fl8U6niNGUEY-Sqnad-396">
                    <mxGeometry width="50" height="50" relative="1" as="geometry">
                        <mxPoint y="329.99999999999983" as="sourcePoint"/>
                        <mxPoint x="200" y="329.99999999999983" as="targetPoint"/>
                    </mxGeometry>
                </mxCell>
                <mxCell id="W_Fl8U6niNGUEY-Sqnad-400" value="flow_p : Flow" style="text;strokeColor=none;fillColor=none;align=left;verticalAlign=middle;spacingLeft=4;spacingRight=4;overflow=hidden;points=[[0,0.5],[1,0.5]];portConstraint=eastwest;rotatable=0;whiteSpace=wrap;html=1;" parent="W_Fl8U6niNGUEY-Sqnad-396" vertex="1">
                    <mxGeometry y="330" width="240" height="30" as="geometry"/>
                </mxCell>
                <mxCell id="W_Fl8U6niNGUEY-Sqnad-401" value="res_r : Res" style="text;strokeColor=none;fillColor=none;align=left;verticalAlign=middle;spacingLeft=4;spacingRight=4;overflow=hidden;points=[[0,0.5],[1,0.5]];portConstraint=eastwest;rotatable=0;whiteSpace=wrap;html=1;" parent="W_Fl8U6niNGUEY-Sqnad-396" vertex="1">
                    <mxGeometry y="360" width="240" height="30" as="geometry"/>
                </mxCell>
                <mxCell id="7" value="" style="endArrow=none;dashed=1;html=1;rounded=0;exitX=0;exitY=0.5;exitDx=0;exitDy=0;entryX=1;entryY=0.5;entryDx=0;entryDy=0;" edge="1" parent="W_Fl8U6niNGUEY-Sqnad-396">
                    <mxGeometry width="50" height="50" relative="1" as="geometry">
                        <mxPoint y="389.99999999999983" as="sourcePoint"/>
                        <mxPoint x="200" y="389.99999999999983" as="targetPoint"/>
                    </mxGeometry>
                </mxCell>
                <mxCell id="W_Fl8U6niNGUEY-Sqnad-403" value="flow_p.f = p" style="text;strokeColor=none;fillColor=none;align=left;verticalAlign=middle;spacingLeft=4;spacingRight=4;overflow=hidden;points=[[0,0.5],[1,0.5]];portConstraint=eastwest;rotatable=0;whiteSpace=wrap;html=1;" parent="W_Fl8U6niNGUEY-Sqnad-396" vertex="1">
                    <mxGeometry y="390" width="240" height="30" as="geometry"/>
                </mxCell>
                <mxCell id="W_Fl8U6niNGUEY-Sqnad-753" value="res_r.r{i}_up = r{i}_up" style="text;strokeColor=none;fillColor=none;align=left;verticalAlign=middle;spacingLeft=4;spacingRight=4;overflow=hidden;points=[[0,0.5],[1,0.5]];portConstraint=eastwest;rotatable=0;whiteSpace=wrap;html=1;" parent="W_Fl8U6niNGUEY-Sqnad-396" vertex="1">
                    <mxGeometry y="420" width="240" height="30" as="geometry"/>
                </mxCell>
                <mxCell id="W_Fl8U6niNGUEY-Sqnad-404" value="res_r.r{i}_down = r{i}_down" style="text;strokeColor=none;fillColor=none;align=left;verticalAlign=middle;spacingLeft=4;spacingRight=4;overflow=hidden;points=[[0,0.5],[1,0.5]];portConstraint=eastwest;rotatable=0;whiteSpace=wrap;html=1;" parent="W_Fl8U6niNGUEY-Sqnad-396" vertex="1">
                    <mxGeometry y="450" width="240" height="30" as="geometry"/>
                </mxCell>
                <mxCell id="W_Fl8U6niNGUEY-Sqnad-405" value="Flow : PortType" style="swimlane;fontStyle=0;childLayout=stackLayout;horizontal=1;startSize=30;horizontalStack=0;resizeParent=1;resizeParentMax=0;resizeLast=0;collapsible=1;marginBottom=0;whiteSpace=wrap;html=1;fillColor=#CCFFCC;" parent="1" vertex="1">
                    <mxGeometry x="-210" y="-780" width="320" height="60" as="geometry"/>
                </mxCell>
                <mxCell id="W_Fl8U6niNGUEY-Sqnad-406" value="f : PortField" style="text;strokeColor=none;fillColor=none;align=left;verticalAlign=middle;spacingLeft=4;spacingRight=4;overflow=hidden;points=[[0,0.5],[1,0.5]];portConstraint=eastwest;rotatable=0;whiteSpace=wrap;html=1;" parent="W_Fl8U6niNGUEY-Sqnad-405" vertex="1">
                    <mxGeometry y="30" width="320" height="30" as="geometry"/>
                </mxCell>
                <mxCell id="W_Fl8U6niNGUEY-Sqnad-407" value="LinkWithReserve : Model" style="swimlane;fontStyle=0;childLayout=stackLayout;horizontal=1;startSize=30;horizontalStack=0;resizeParent=1;resizeParentMax=0;resizeLast=0;collapsible=1;marginBottom=0;whiteSpace=wrap;html=1;fillColor=#CCFFCC;" parent="1" vertex="1">
                    <mxGeometry x="650" y="-780" width="930" height="610" as="geometry"/>
                </mxCell>
                <mxCell id="W_Fl8U6niNGUEY-Sqnad-408" value="f : Variable" style="text;strokeColor=none;fillColor=none;align=left;verticalAlign=middle;spacingLeft=4;spacingRight=4;overflow=hidden;points=[[0,0.5],[1,0.5]];portConstraint=eastwest;rotatable=0;whiteSpace=wrap;html=1;" parent="W_Fl8U6niNGUEY-Sqnad-407" vertex="1">
                    <mxGeometry y="30" width="930" height="30" as="geometry"/>
                </mxCell>
                <mxCell id="W_Fl8U6niNGUEY-Sqnad-798" value="c{i}_exp_up : Variable&amp;nbsp;" style="text;strokeColor=none;fillColor=none;align=left;verticalAlign=middle;spacingLeft=4;spacingRight=4;overflow=hidden;points=[[0,0.5],[1,0.5]];portConstraint=eastwest;rotatable=0;whiteSpace=wrap;html=1;" parent="W_Fl8U6niNGUEY-Sqnad-407" vertex="1">
                    <mxGeometry y="60" width="930" height="30" as="geometry"/>
                </mxCell>
                <mxCell id="W_Fl8U6niNGUEY-Sqnad-797" value="c{i}_imp_down : Variable&amp;nbsp;" style="text;strokeColor=none;fillColor=none;align=left;verticalAlign=middle;spacingLeft=4;spacingRight=4;overflow=hidden;points=[[0,0.5],[1,0.5]];portConstraint=eastwest;rotatable=0;whiteSpace=wrap;html=1;" parent="W_Fl8U6niNGUEY-Sqnad-407" vertex="1">
                    <mxGeometry y="90" width="930" height="30" as="geometry"/>
                </mxCell>
                <mxCell id="W_Fl8U6niNGUEY-Sqnad-796" value="&lt;span style=&quot;color: rgb(0, 0, 0); font-family: Helvetica; font-size: 12px; font-style: normal; font-variant-ligatures: normal; font-variant-caps: normal; font-weight: 400; letter-spacing: normal; orphans: 2; text-align: left; text-indent: 0px; text-transform: none; widows: 2; word-spacing: 0px; -webkit-text-stroke-width: 0px; background-color: rgb(251, 251, 251); text-decoration-thickness: initial; text-decoration-style: initial; text-decoration-color: initial; float: none; display: inline !important;&quot;&gt;c{i}_exp_down : Variableh&amp;nbsp;&lt;/span&gt;" style="text;strokeColor=none;fillColor=none;align=left;verticalAlign=middle;spacingLeft=4;spacingRight=4;overflow=hidden;points=[[0,0.5],[1,0.5]];portConstraint=eastwest;rotatable=0;whiteSpace=wrap;html=1;" parent="W_Fl8U6niNGUEY-Sqnad-407" vertex="1">
                    <mxGeometry y="120" width="930" height="30" as="geometry"/>
                </mxCell>
                <mxCell id="W_Fl8U6niNGUEY-Sqnad-795" value="c{i}_imp_up : Variable&amp;nbsp;" style="text;strokeColor=none;fillColor=none;align=left;verticalAlign=middle;spacingLeft=4;spacingRight=4;overflow=hidden;points=[[0,0.5],[1,0.5]];portConstraint=eastwest;rotatable=0;whiteSpace=wrap;html=1;" parent="W_Fl8U6niNGUEY-Sqnad-407" vertex="1">
                    <mxGeometry y="150" width="930" height="30" as="geometry"/>
                </mxCell>
                <mxCell id="11" value="" style="endArrow=none;dashed=1;html=1;rounded=0;exitX=0;exitY=0.5;exitDx=0;exitDy=0;entryX=1;entryY=0.5;entryDx=0;entryDy=0;" edge="1" parent="W_Fl8U6niNGUEY-Sqnad-407">
                    <mxGeometry width="50" height="50" relative="1" as="geometry">
                        <mxPoint y="179.99999999999977" as="sourcePoint"/>
                        <mxPoint x="200" y="179.99999999999977" as="targetPoint"/>
                    </mxGeometry>
                </mxCell>
                <mxCell id="W_Fl8U6niNGUEY-Sqnad-410" value="alpha : Parameter" style="text;strokeColor=none;fillColor=none;align=left;verticalAlign=middle;spacingLeft=4;spacingRight=4;overflow=hidden;points=[[0,0.5],[1,0.5]];portConstraint=eastwest;rotatable=0;whiteSpace=wrap;html=1;" parent="W_Fl8U6niNGUEY-Sqnad-407" vertex="1">
                    <mxGeometry y="180" width="930" height="30" as="geometry"/>
                </mxCell>
                <mxCell id="W_Fl8U6niNGUEY-Sqnad-411" value="f_max : Parameter" style="text;strokeColor=none;fillColor=none;align=left;verticalAlign=middle;spacingLeft=4;spacingRight=4;overflow=hidden;points=[[0,0.5],[1,0.5]];portConstraint=eastwest;rotatable=0;whiteSpace=wrap;html=1;" parent="W_Fl8U6niNGUEY-Sqnad-407" vertex="1">
                    <mxGeometry y="210" width="930" height="40" as="geometry"/>
                </mxCell>
                <mxCell id="18" value="" style="endArrow=none;dashed=1;html=1;rounded=0;exitX=0;exitY=0.5;exitDx=0;exitDy=0;entryX=1;entryY=0.5;entryDx=0;entryDy=0;" edge="1" parent="W_Fl8U6niNGUEY-Sqnad-407">
                    <mxGeometry width="50" height="50" relative="1" as="geometry">
                        <mxPoint y="239.99999999999977" as="sourcePoint"/>
                        <mxPoint x="200" y="239.99999999999977" as="targetPoint"/>
                    </mxGeometry>
                </mxCell>
                <mxCell id="W_Fl8U6niNGUEY-Sqnad-412" value="-f_max + (sum( c{i}_exp_down)&amp;nbsp; + sum(c{i}_imp_up))&amp;nbsp; &amp;nbsp;&amp;lt;= f&amp;nbsp; &amp;lt;= f_max -(sum(c{i}_exp_up)&amp;nbsp; + sum(c{i}_imp_down))&amp;nbsp;&lt;br&gt;&amp;nbsp;" style="text;strokeColor=none;fillColor=none;align=left;verticalAlign=middle;spacingLeft=4;spacingRight=4;overflow=hidden;points=[[0,0.5],[1,0.5]];portConstraint=eastwest;rotatable=0;whiteSpace=wrap;html=1;" parent="W_Fl8U6niNGUEY-Sqnad-407" vertex="1">
                    <mxGeometry y="250" width="930" height="30" as="geometry"/>
                </mxCell>
                <mxCell id="W_Fl8U6niNGUEY-Sqnad-413" value="sum(c{i}_exp_down)&amp;nbsp; + sum(c{i}_imp_up) +sum(c{i}_exp_up) + sum(c{i}_imp_down) &amp;lt;= alpha * f_max" style="text;strokeColor=none;fillColor=none;align=left;verticalAlign=middle;spacingLeft=4;spacingRight=4;overflow=hidden;points=[[0,0.5],[1,0.5]];portConstraint=eastwest;rotatable=0;whiteSpace=wrap;html=1;" parent="W_Fl8U6niNGUEY-Sqnad-407" vertex="1">
                    <mxGeometry y="280" width="930" height="30" as="geometry"/>
                </mxCell>
                <mxCell id="16" value="" style="endArrow=none;dashed=1;html=1;rounded=0;exitX=0;exitY=0.5;exitDx=0;exitDy=0;entryX=1;entryY=0.5;entryDx=0;entryDy=0;" edge="1" parent="W_Fl8U6niNGUEY-Sqnad-407">
                    <mxGeometry width="50" height="50" relative="1" as="geometry">
                        <mxPoint y="309.9999999999998" as="sourcePoint"/>
                        <mxPoint x="200" y="309.9999999999998" as="targetPoint"/>
                    </mxGeometry>
                </mxCell>
                <mxCell id="W_Fl8U6niNGUEY-Sqnad-416" value="flow_to : Flow&amp;nbsp;" style="text;strokeColor=none;fillColor=none;align=left;verticalAlign=middle;spacingLeft=4;spacingRight=4;overflow=hidden;points=[[0,0.5],[1,0.5]];portConstraint=eastwest;rotatable=0;whiteSpace=wrap;html=1;" parent="W_Fl8U6niNGUEY-Sqnad-407" vertex="1">
                    <mxGeometry y="310" width="930" height="30" as="geometry"/>
                </mxCell>
                <mxCell id="W_Fl8U6niNGUEY-Sqnad-415" value="flow_from : Flow" style="text;strokeColor=none;fillColor=none;align=left;verticalAlign=middle;spacingLeft=4;spacingRight=4;overflow=hidden;points=[[0,0.5],[1,0.5]];portConstraint=eastwest;rotatable=0;whiteSpace=wrap;html=1;" parent="W_Fl8U6niNGUEY-Sqnad-407" vertex="1">
                    <mxGeometry y="340" width="930" height="30" as="geometry"/>
                </mxCell>
                <mxCell id="W_Fl8U6niNGUEY-Sqnad-417" value="res_from : Res" style="text;strokeColor=none;fillColor=none;align=left;verticalAlign=middle;spacingLeft=4;spacingRight=4;overflow=hidden;points=[[0,0.5],[1,0.5]];portConstraint=eastwest;rotatable=0;whiteSpace=wrap;html=1;" parent="W_Fl8U6niNGUEY-Sqnad-407" vertex="1">
                    <mxGeometry y="370" width="930" height="30" as="geometry"/>
                </mxCell>
                <mxCell id="W_Fl8U6niNGUEY-Sqnad-794" value="res_to : Res" style="text;strokeColor=none;fillColor=none;align=left;verticalAlign=middle;spacingLeft=4;spacingRight=4;overflow=hidden;points=[[0,0.5],[1,0.5]];portConstraint=eastwest;rotatable=0;whiteSpace=wrap;html=1;" parent="W_Fl8U6niNGUEY-Sqnad-407" vertex="1">
                    <mxGeometry y="400" width="930" height="30" as="geometry"/>
                </mxCell>
                <mxCell id="17" value="" style="endArrow=none;dashed=1;html=1;rounded=0;exitX=0;exitY=0.5;exitDx=0;exitDy=0;entryX=1;entryY=0.5;entryDx=0;entryDy=0;" edge="1" parent="W_Fl8U6niNGUEY-Sqnad-407">
                    <mxGeometry width="50" height="50" relative="1" as="geometry">
                        <mxPoint y="429.12999999999977" as="sourcePoint"/>
                        <mxPoint x="200" y="429.12999999999977" as="targetPoint"/>
                    </mxGeometry>
                </mxCell>
                <mxCell id="W_Fl8U6niNGUEY-Sqnad-788" value="flow_from.F = -f" style="text;strokeColor=none;fillColor=none;align=left;verticalAlign=middle;spacingLeft=4;spacingRight=4;overflow=hidden;points=[[0,0.5],[1,0.5]];portConstraint=eastwest;rotatable=0;whiteSpace=wrap;html=1;" parent="W_Fl8U6niNGUEY-Sqnad-407" vertex="1">
                    <mxGeometry y="430" width="930" height="30" as="geometry"/>
                </mxCell>
                <mxCell id="W_Fl8U6niNGUEY-Sqnad-418" value="flow_to.F = f" style="text;strokeColor=none;fillColor=none;align=left;verticalAlign=middle;spacingLeft=4;spacingRight=4;overflow=hidden;points=[[0,0.5],[1,0.5]];portConstraint=eastwest;rotatable=0;whiteSpace=wrap;html=1;" parent="W_Fl8U6niNGUEY-Sqnad-407" vertex="1">
                    <mxGeometry y="460" width="930" height="30" as="geometry"/>
                </mxCell>
                <mxCell id="W_Fl8U6niNGUEY-Sqnad-742" value="res_from.r{i}_up = - (c{i}_exp_up&amp;nbsp;- c{i}_imp_up)" style="text;strokeColor=none;fillColor=none;align=left;verticalAlign=middle;spacingLeft=4;spacingRight=4;overflow=hidden;points=[[0,0.5],[1,0.5]];portConstraint=eastwest;rotatable=0;whiteSpace=wrap;html=1;" parent="W_Fl8U6niNGUEY-Sqnad-407" vertex="1">
                    <mxGeometry y="490" width="930" height="30" as="geometry"/>
                </mxCell>
                <mxCell id="W_Fl8U6niNGUEY-Sqnad-741" value="res_from.r{i}_down = - (c{i}_exp_down - c{i}_imp_down)" style="text;strokeColor=none;fillColor=none;align=left;verticalAlign=middle;spacingLeft=4;spacingRight=4;overflow=hidden;points=[[0,0.5],[1,0.5]];portConstraint=eastwest;rotatable=0;whiteSpace=wrap;html=1;" parent="W_Fl8U6niNGUEY-Sqnad-407" vertex="1">
                    <mxGeometry y="520" width="930" height="30" as="geometry"/>
                </mxCell>
                <mxCell id="W_Fl8U6niNGUEY-Sqnad-738" value="res_to.r{i}_up =&amp;nbsp; (c{i}_exp_up&amp;nbsp;- c{i}_imp_up)" style="text;strokeColor=none;fillColor=none;align=left;verticalAlign=middle;spacingLeft=4;spacingRight=4;overflow=hidden;points=[[0,0.5],[1,0.5]];portConstraint=eastwest;rotatable=0;whiteSpace=wrap;html=1;" parent="W_Fl8U6niNGUEY-Sqnad-407" vertex="1">
                    <mxGeometry y="550" width="930" height="30" as="geometry"/>
                </mxCell>
                <mxCell id="W_Fl8U6niNGUEY-Sqnad-737" value="res_to.r{i}_down = (c{i}_exp_down - c{i}_imp_down)" style="text;strokeColor=none;fillColor=none;align=left;verticalAlign=middle;spacingLeft=4;spacingRight=4;overflow=hidden;points=[[0,0.5],[1,0.5]];portConstraint=eastwest;rotatable=0;whiteSpace=wrap;html=1;" parent="W_Fl8U6niNGUEY-Sqnad-407" vertex="1">
                    <mxGeometry y="580" width="930" height="30" as="geometry"/>
                </mxCell>
                <mxCell id="W_Fl8U6niNGUEY-Sqnad-430" value="ReserveConverter : Model" style="swimlane;fontStyle=0;childLayout=stackLayout;horizontal=1;startSize=30;horizontalStack=0;resizeParent=1;resizeParentMax=0;resizeLast=0;collapsible=1;marginBottom=0;whiteSpace=wrap;html=1;fillColor=#CCFFCC;" parent="1" vertex="1">
                    <mxGeometry x="370" y="-590" width="270" height="330" as="geometry"/>
                </mxCell>
                <mxCell id="W_Fl8U6niNGUEY-Sqnad-772" value="r{i}_up : Variable&amp;nbsp;" style="text;strokeColor=none;fillColor=none;align=left;verticalAlign=middle;spacingLeft=4;spacingRight=4;overflow=hidden;points=[[0,0.5],[1,0.5]];portConstraint=eastwest;rotatable=0;whiteSpace=wrap;html=1;" parent="W_Fl8U6niNGUEY-Sqnad-430" vertex="1">
                    <mxGeometry y="30" width="270" height="30" as="geometry"/>
                </mxCell>
                <mxCell id="W_Fl8U6niNGUEY-Sqnad-774" value="r{i}_down: Variable&amp;nbsp;" style="text;strokeColor=none;fillColor=none;align=left;verticalAlign=middle;spacingLeft=4;spacingRight=4;overflow=hidden;points=[[0,0.5],[1,0.5]];portConstraint=eastwest;rotatable=0;whiteSpace=wrap;html=1;" parent="W_Fl8U6niNGUEY-Sqnad-430" vertex="1">
                    <mxGeometry y="60" width="270" height="30" as="geometry"/>
                </mxCell>
                <mxCell id="8" value="" style="endArrow=none;dashed=1;html=1;rounded=0;exitX=0;exitY=0.5;exitDx=0;exitDy=0;entryX=1;entryY=0.5;entryDx=0;entryDy=0;" edge="1" parent="W_Fl8U6niNGUEY-Sqnad-430">
                    <mxGeometry width="50" height="50" relative="1" as="geometry">
                        <mxPoint y="89.99999999999983" as="sourcePoint"/>
                        <mxPoint x="200" y="89.99999999999983" as="targetPoint"/>
                    </mxGeometry>
                </mxCell>
                <mxCell id="W_Fl8U6niNGUEY-Sqnad-790" value="0 &amp;lt;=&amp;nbsp; r{i}_up&amp;nbsp;" style="text;strokeColor=none;fillColor=none;align=left;verticalAlign=middle;spacingLeft=4;spacingRight=4;overflow=hidden;points=[[0,0.5],[1,0.5]];portConstraint=eastwest;rotatable=0;whiteSpace=wrap;html=1;" parent="W_Fl8U6niNGUEY-Sqnad-430" vertex="1">
                    <mxGeometry y="90" width="270" height="30" as="geometry"/>
                </mxCell>
                <mxCell id="W_Fl8U6niNGUEY-Sqnad-789" value="0 &amp;lt;=&amp;nbsp; r{i}_down&amp;nbsp;" style="text;strokeColor=none;fillColor=none;align=left;verticalAlign=middle;spacingLeft=4;spacingRight=4;overflow=hidden;points=[[0,0.5],[1,0.5]];portConstraint=eastwest;rotatable=0;whiteSpace=wrap;html=1;" parent="W_Fl8U6niNGUEY-Sqnad-430" vertex="1">
                    <mxGeometry y="120" width="270" height="30" as="geometry"/>
                </mxCell>
                <mxCell id="14" value="" style="endArrow=none;dashed=1;html=1;rounded=0;exitX=0;exitY=0.5;exitDx=0;exitDy=0;entryX=1;entryY=0.5;entryDx=0;entryDy=0;" edge="1" parent="W_Fl8U6niNGUEY-Sqnad-430">
                    <mxGeometry width="50" height="50" relative="1" as="geometry">
                        <mxPoint y="149.99999999999977" as="sourcePoint"/>
                        <mxPoint x="200" y="149.99999999999977" as="targetPoint"/>
                    </mxGeometry>
                </mxCell>
                <mxCell id="W_Fl8U6niNGUEY-Sqnad-435" value="res_from : Res" style="text;strokeColor=none;fillColor=none;align=left;verticalAlign=middle;spacingLeft=4;spacingRight=4;overflow=hidden;points=[[0,0.5],[1,0.5]];portConstraint=eastwest;rotatable=0;whiteSpace=wrap;html=1;" parent="W_Fl8U6niNGUEY-Sqnad-430" vertex="1">
                    <mxGeometry y="150" width="270" height="30" as="geometry"/>
                </mxCell>
                <mxCell id="W_Fl8U6niNGUEY-Sqnad-783" value="res_to : Res" style="text;strokeColor=none;fillColor=none;align=left;verticalAlign=middle;spacingLeft=4;spacingRight=4;overflow=hidden;points=[[0,0.5],[1,0.5]];portConstraint=eastwest;rotatable=0;whiteSpace=wrap;html=1;" parent="W_Fl8U6niNGUEY-Sqnad-430" vertex="1">
                    <mxGeometry y="180" width="270" height="30" as="geometry"/>
                </mxCell>
                <mxCell id="15" value="" style="endArrow=none;dashed=1;html=1;rounded=0;exitX=0;exitY=0.5;exitDx=0;exitDy=0;entryX=1;entryY=0.5;entryDx=0;entryDy=0;" edge="1" parent="W_Fl8U6niNGUEY-Sqnad-430">
                    <mxGeometry width="50" height="50" relative="1" as="geometry">
                        <mxPoint y="209.12999999999977" as="sourcePoint"/>
                        <mxPoint x="200" y="209.12999999999977" as="targetPoint"/>
                    </mxGeometry>
                </mxCell>
                <mxCell id="W_Fl8U6niNGUEY-Sqnad-439" value="res_to.r{i}_up = r{i}_up&amp;nbsp;" style="text;strokeColor=none;fillColor=none;align=left;verticalAlign=middle;spacingLeft=4;spacingRight=4;overflow=hidden;points=[[0,0.5],[1,0.5]];portConstraint=eastwest;rotatable=0;whiteSpace=wrap;html=1;" parent="W_Fl8U6niNGUEY-Sqnad-430" vertex="1">
                    <mxGeometry y="210" width="270" height="30" as="geometry"/>
                </mxCell>
                <mxCell id="W_Fl8U6niNGUEY-Sqnad-782" value="res_to.r{i}_down = r{i}_down&amp;nbsp;" style="text;strokeColor=none;fillColor=none;align=left;verticalAlign=middle;spacingLeft=4;spacingRight=4;overflow=hidden;points=[[0,0.5],[1,0.5]];portConstraint=eastwest;rotatable=0;whiteSpace=wrap;html=1;" parent="W_Fl8U6niNGUEY-Sqnad-430" vertex="1">
                    <mxGeometry y="240" width="270" height="30" as="geometry"/>
                </mxCell>
                <mxCell id="W_Fl8U6niNGUEY-Sqnad-785" value="res_from.r{i}_up = -r{i}_up&amp;nbsp;" style="text;strokeColor=none;fillColor=none;align=left;verticalAlign=middle;spacingLeft=4;spacingRight=4;overflow=hidden;points=[[0,0.5],[1,0.5]];portConstraint=eastwest;rotatable=0;whiteSpace=wrap;html=1;" parent="W_Fl8U6niNGUEY-Sqnad-430" vertex="1">
                    <mxGeometry y="270" width="270" height="30" as="geometry"/>
                </mxCell>
                <mxCell id="W_Fl8U6niNGUEY-Sqnad-784" value="res_from.r{i}_down = -r{i}_down&amp;nbsp;" style="text;strokeColor=none;fillColor=none;align=left;verticalAlign=middle;spacingLeft=4;spacingRight=4;overflow=hidden;points=[[0,0.5],[1,0.5]];portConstraint=eastwest;rotatable=0;whiteSpace=wrap;html=1;" parent="W_Fl8U6niNGUEY-Sqnad-430" vertex="1">
                    <mxGeometry y="300" width="270" height="30" as="geometry"/>
                </mxCell>
                <mxCell id="W_Fl8U6niNGUEY-Sqnad-446" value="Res: PortType" style="swimlane;fontStyle=0;childLayout=stackLayout;horizontal=1;startSize=30;horizontalStack=0;resizeParent=1;resizeParentMax=0;resizeLast=0;collapsible=1;marginBottom=0;whiteSpace=wrap;html=1;fillColor=#CCFFCC;" parent="1" vertex="1">
                    <mxGeometry x="-210" y="-710" width="320" height="90" as="geometry"/>
                </mxCell>
                <mxCell id="W_Fl8U6niNGUEY-Sqnad-756" value="r{i}_up : PortField" style="text;strokeColor=none;fillColor=none;align=left;verticalAlign=middle;spacingLeft=4;spacingRight=4;overflow=hidden;points=[[0,0.5],[1,0.5]];portConstraint=eastwest;rotatable=0;whiteSpace=wrap;html=1;" parent="W_Fl8U6niNGUEY-Sqnad-446" vertex="1">
                    <mxGeometry y="30" width="320" height="30" as="geometry"/>
                </mxCell>
                <mxCell id="W_Fl8U6niNGUEY-Sqnad-754" value="&lt;span style=&quot;color: rgb(0, 0, 0); font-family: Helvetica; font-size: 12px; font-style: normal; font-variant-ligatures: normal; font-variant-caps: normal; font-weight: 400; letter-spacing: normal; orphans: 2; text-align: left; text-indent: 0px; text-transform: none; widows: 2; word-spacing: 0px; -webkit-text-stroke-width: 0px; background-color: rgb(251, 251, 251); text-decoration-thickness: initial; text-decoration-style: initial; text-decoration-color: initial; float: none; display: inline !important;&quot;&gt;r{i}_down : PortField&lt;/span&gt;" style="text;strokeColor=none;fillColor=none;align=left;verticalAlign=middle;spacingLeft=4;spacingRight=4;overflow=hidden;points=[[0,0.5],[1,0.5]];portConstraint=eastwest;rotatable=0;whiteSpace=wrap;html=1;" parent="W_Fl8U6niNGUEY-Sqnad-446" vertex="1">
                    <mxGeometry y="60" width="320" height="30" as="geometry"/>
                </mxCell>
                <mxCell id="W_Fl8U6niNGUEY-Sqnad-448" value="ReserveDemand : Model" style="swimlane;fontStyle=0;childLayout=stackLayout;horizontal=1;startSize=30;horizontalStack=0;resizeParent=1;resizeParentMax=0;resizeLast=0;collapsible=1;marginBottom=0;whiteSpace=wrap;html=1;fillColor=#CCFFCC;" parent="1" vertex="1">
                    <mxGeometry x="370" y="-780" width="270" height="180" as="geometry"/>
                </mxCell>
                <mxCell id="W_Fl8U6niNGUEY-Sqnad-779" value="d_r{i}_up : Parameter" style="text;strokeColor=none;fillColor=none;align=left;verticalAlign=middle;spacingLeft=4;spacingRight=4;overflow=hidden;points=[[0,0.5],[1,0.5]];portConstraint=eastwest;rotatable=0;whiteSpace=wrap;html=1;" parent="W_Fl8U6niNGUEY-Sqnad-448" vertex="1">
                    <mxGeometry y="30" width="270" height="30" as="geometry"/>
                </mxCell>
                <mxCell id="W_Fl8U6niNGUEY-Sqnad-778" value="d_r{i}_down : Parameter" style="text;strokeColor=none;fillColor=none;align=left;verticalAlign=middle;spacingLeft=4;spacingRight=4;overflow=hidden;points=[[0,0.5],[1,0.5]];portConstraint=eastwest;rotatable=0;whiteSpace=wrap;html=1;" parent="W_Fl8U6niNGUEY-Sqnad-448" vertex="1">
                    <mxGeometry y="60" width="270" height="30" as="geometry"/>
                </mxCell>
                <mxCell id="12" value="" style="endArrow=none;dashed=1;html=1;rounded=0;exitX=0;exitY=0.5;exitDx=0;exitDy=0;entryX=1;entryY=0.5;entryDx=0;entryDy=0;" edge="1" parent="W_Fl8U6niNGUEY-Sqnad-448">
                    <mxGeometry width="50" height="50" relative="1" as="geometry">
                        <mxPoint y="89.56999999999971" as="sourcePoint"/>
                        <mxPoint x="200" y="89.56999999999971" as="targetPoint"/>
                    </mxGeometry>
                </mxCell>
                <mxCell id="W_Fl8U6niNGUEY-Sqnad-451" value="res_d: Res" style="text;strokeColor=none;fillColor=none;align=left;verticalAlign=middle;spacingLeft=4;spacingRight=4;overflow=hidden;points=[[0,0.5],[1,0.5]];portConstraint=eastwest;rotatable=0;whiteSpace=wrap;html=1;" parent="W_Fl8U6niNGUEY-Sqnad-448" vertex="1">
                    <mxGeometry y="90" width="270" height="30" as="geometry"/>
                </mxCell>
                <mxCell id="13" value="" style="endArrow=none;dashed=1;html=1;rounded=0;exitX=0;exitY=0.5;exitDx=0;exitDy=0;entryX=1;entryY=0.5;entryDx=0;entryDy=0;" edge="1" parent="W_Fl8U6niNGUEY-Sqnad-448">
                    <mxGeometry width="50" height="50" relative="1" as="geometry">
                        <mxPoint y="119.99999999999966" as="sourcePoint"/>
                        <mxPoint x="200" y="119.99999999999966" as="targetPoint"/>
                    </mxGeometry>
                </mxCell>
                <mxCell id="W_Fl8U6niNGUEY-Sqnad-776" value="res_d.r{i}_up =&amp;nbsp; -d_r{i}_up" style="text;strokeColor=none;fillColor=none;align=left;verticalAlign=middle;spacingLeft=4;spacingRight=4;overflow=hidden;points=[[0,0.5],[1,0.5]];portConstraint=eastwest;rotatable=0;whiteSpace=wrap;html=1;" parent="W_Fl8U6niNGUEY-Sqnad-448" vertex="1">
                    <mxGeometry y="120" width="270" height="30" as="geometry"/>
                </mxCell>
                <mxCell id="W_Fl8U6niNGUEY-Sqnad-775" value="res_d.r{i}_down =&amp;nbsp; -d_r{i}_down" style="text;strokeColor=none;fillColor=none;align=left;verticalAlign=middle;spacingLeft=4;spacingRight=4;overflow=hidden;points=[[0,0.5],[1,0.5]];portConstraint=eastwest;rotatable=0;whiteSpace=wrap;html=1;" parent="W_Fl8U6niNGUEY-Sqnad-448" vertex="1">
                    <mxGeometry y="150" width="270" height="30" as="geometry"/>
                </mxCell>
                <mxCell id="W_Fl8U6niNGUEY-Sqnad-454" value="ReserveDisctrict : Model" style="swimlane;fontStyle=0;childLayout=stackLayout;horizontal=1;startSize=30;horizontalStack=0;resizeParent=1;resizeParentMax=0;resizeLast=0;collapsible=1;marginBottom=0;whiteSpace=wrap;html=1;fillColor=#CCFFCC;" parent="1" vertex="1">
                    <mxGeometry x="-210" y="-480" width="320" height="180" as="geometry"/>
                </mxCell>
                <mxCell id="W_Fl8U6niNGUEY-Sqnad-767" value="spill_r{i}_up, lol_r{i}_up : Variable" style="text;strokeColor=none;fillColor=none;align=left;verticalAlign=middle;spacingLeft=4;spacingRight=4;overflow=hidden;points=[[0,0.5],[1,0.5]];portConstraint=eastwest;rotatable=0;whiteSpace=wrap;html=1;" parent="W_Fl8U6niNGUEY-Sqnad-454" vertex="1">
                    <mxGeometry y="30" width="320" height="30" as="geometry"/>
                </mxCell>
                <mxCell id="W_Fl8U6niNGUEY-Sqnad-766" value="spill_r{i}_down, lol_r{i}_down : Variable" style="text;strokeColor=none;fillColor=none;align=left;verticalAlign=middle;spacingLeft=4;spacingRight=4;overflow=hidden;points=[[0,0.5],[1,0.5]];portConstraint=eastwest;rotatable=0;whiteSpace=wrap;html=1;" parent="W_Fl8U6niNGUEY-Sqnad-454" vertex="1">
                    <mxGeometry y="60" width="320" height="30" as="geometry"/>
                </mxCell>
                <mxCell id="2" value="" style="endArrow=none;dashed=1;html=1;rounded=0;exitX=0;exitY=0.5;exitDx=0;exitDy=0;entryX=1;entryY=0.5;entryDx=0;entryDy=0;" edge="1" parent="W_Fl8U6niNGUEY-Sqnad-454">
                    <mxGeometry width="50" height="50" relative="1" as="geometry">
                        <mxPoint y="90" as="sourcePoint"/>
                        <mxPoint x="220" y="90" as="targetPoint"/>
                    </mxGeometry>
                </mxCell>
                <mxCell id="W_Fl8U6niNGUEY-Sqnad-457" value="res_di: Res" style="text;strokeColor=none;fillColor=none;align=left;verticalAlign=middle;spacingLeft=4;spacingRight=4;overflow=hidden;points=[[0,0.5],[1,0.5]];portConstraint=eastwest;rotatable=0;whiteSpace=wrap;html=1;" parent="W_Fl8U6niNGUEY-Sqnad-454" vertex="1">
                    <mxGeometry y="90" width="320" height="30" as="geometry"/>
                </mxCell>
                <mxCell id="3" value="" style="endArrow=none;dashed=1;html=1;rounded=0;exitX=0;exitY=0.5;exitDx=0;exitDy=0;entryX=1;entryY=0.5;entryDx=0;entryDy=0;" edge="1" parent="W_Fl8U6niNGUEY-Sqnad-454">
                    <mxGeometry width="50" height="50" relative="1" as="geometry">
                        <mxPoint y="120" as="sourcePoint"/>
                        <mxPoint x="220" y="120" as="targetPoint"/>
                    </mxGeometry>
                </mxCell>
                <mxCell id="W_Fl8U6niNGUEY-Sqnad-770" value="res_di.r{i}_up.sum() = spill_r{i}_up - lol_r{i}_up" style="text;strokeColor=none;fillColor=none;align=left;verticalAlign=middle;spacingLeft=4;spacingRight=4;overflow=hidden;points=[[0,0.5],[1,0.5]];portConstraint=eastwest;rotatable=0;whiteSpace=wrap;html=1;" parent="W_Fl8U6niNGUEY-Sqnad-454" vertex="1">
                    <mxGeometry y="120" width="320" height="30" as="geometry"/>
                </mxCell>
                <mxCell id="W_Fl8U6niNGUEY-Sqnad-771" value="res_di.r{i}_.down.sum() = spill_r{i}_down - lol_r{i}_down" style="text;strokeColor=none;fillColor=none;align=left;verticalAlign=middle;spacingLeft=4;spacingRight=4;overflow=hidden;points=[[0,0.5],[1,0.5]];portConstraint=eastwest;rotatable=0;whiteSpace=wrap;html=1;" parent="W_Fl8U6niNGUEY-Sqnad-454" vertex="1">
                    <mxGeometry y="150" width="320" height="30" as="geometry"/>
                </mxCell>
                <mxCell id="W_Fl8U6niNGUEY-Sqnad-424" value="Nœud : Model" style="swimlane;fontStyle=0;childLayout=stackLayout;horizontal=1;startSize=30;horizontalStack=0;resizeParent=1;resizeParentMax=0;resizeLast=0;collapsible=1;marginBottom=0;whiteSpace=wrap;html=1;fillColor=#CCFFCC;" parent="1" vertex="1">
                    <mxGeometry x="-210" y="-610" width="320" height="120" as="geometry"/>
                </mxCell>
                <mxCell id="W_Fl8U6niNGUEY-Sqnad-425" value="Spill, Lol : Variable" style="text;strokeColor=none;fillColor=none;align=left;verticalAlign=middle;spacingLeft=4;spacingRight=4;overflow=hidden;points=[[0,0.5],[1,0.5]];portConstraint=eastwest;rotatable=0;whiteSpace=wrap;html=1;" parent="W_Fl8U6niNGUEY-Sqnad-424" vertex="1">
                    <mxGeometry y="30" width="320" height="30" as="geometry"/>
                </mxCell>
                <mxCell id="W_Fl8U6niNGUEY-Sqnad-426" value="" style="endArrow=none;dashed=1;html=1;rounded=0;exitX=0;exitY=0.5;exitDx=0;exitDy=0;entryX=1;entryY=0.5;entryDx=0;entryDy=0;" parent="W_Fl8U6niNGUEY-Sqnad-424" edge="1">
                    <mxGeometry width="50" height="50" relative="1" as="geometry">
                        <mxPoint y="60" as="sourcePoint"/>
                        <mxPoint x="220" y="60" as="targetPoint"/>
                    </mxGeometry>
                </mxCell>
                <mxCell id="W_Fl8U6niNGUEY-Sqnad-427" value="flow_n : Flow" style="text;strokeColor=none;fillColor=none;align=left;verticalAlign=middle;spacingLeft=4;spacingRight=4;overflow=hidden;points=[[0,0.5],[1,0.5]];portConstraint=eastwest;rotatable=0;whiteSpace=wrap;html=1;" parent="W_Fl8U6niNGUEY-Sqnad-424" vertex="1">
                    <mxGeometry y="60" width="320" height="30" as="geometry"/>
                </mxCell>
                <mxCell id="W_Fl8U6niNGUEY-Sqnad-428" value="" style="endArrow=none;dashed=1;html=1;rounded=0;exitX=0;exitY=0.5;exitDx=0;exitDy=0;entryX=1;entryY=0.5;entryDx=0;entryDy=0;" parent="W_Fl8U6niNGUEY-Sqnad-424" edge="1">
                    <mxGeometry width="50" height="50" relative="1" as="geometry">
                        <mxPoint y="88" as="sourcePoint"/>
                        <mxPoint x="220" y="88" as="targetPoint"/>
                    </mxGeometry>
                </mxCell>
                <mxCell id="W_Fl8U6niNGUEY-Sqnad-429" value="flown_n.F.sum() = Spill - Lol" style="text;strokeColor=none;fillColor=none;align=left;verticalAlign=middle;spacingLeft=4;spacingRight=4;overflow=hidden;points=[[0,0.5],[1,0.5]];portConstraint=eastwest;rotatable=0;whiteSpace=wrap;html=1;" parent="W_Fl8U6niNGUEY-Sqnad-424" vertex="1">
                    <mxGeometry y="90" width="320" height="30" as="geometry"/>
                </mxCell>
                <mxCell id="aWoHtGz9jkfwQIE-XJvv-30" value="&lt;div align=&quot;center&quot;&gt;District 1&lt;/div&gt;" style="ellipse;whiteSpace=wrap;html=1;rotation=-45;fillColor=#dae8fc;strokeColor=#6c8ebf;opacity=50;align=center;" parent="1" vertex="1">
                    <mxGeometry x="-900" y="-210.72469066961918" width="264.23" height="188.64" as="geometry"/>
                </mxCell>
                <mxCell id="gQHjPlM2CJMaZ_1cljnZ-16" value="&lt;div align=&quot;center&quot;&gt;District2&lt;/div&gt;" style="ellipse;whiteSpace=wrap;html=1;rotation=-45;fillColor=#dae8fc;strokeColor=#6c8ebf;opacity=50;align=center;" parent="1" vertex="1">
                    <mxGeometry x="-801.29" y="-107.13000000000001" width="488.54" height="267.13" as="geometry"/>
                </mxCell>
                <mxCell id="gQHjPlM2CJMaZ_1cljnZ-1" value="N1" style="ellipse;whiteSpace=wrap;html=1;aspect=fixed;" parent="1" vertex="1">
                    <mxGeometry x="-761.29" y="-131.13" width="80" height="80" as="geometry"/>
                </mxCell>
                <mxCell id="gQHjPlM2CJMaZ_1cljnZ-2" value="N2" style="ellipse;whiteSpace=wrap;html=1;aspect=fixed;" parent="1" vertex="1">
                    <mxGeometry x="-547.29" y="-131.13" width="80" height="80" as="geometry"/>
                </mxCell>
                <mxCell id="gQHjPlM2CJMaZ_1cljnZ-3" value="N3" style="ellipse;whiteSpace=wrap;html=1;aspect=fixed;" parent="1" vertex="1">
                    <mxGeometry x="-661.29" y="48.870000000000005" width="80" height="80" as="geometry"/>
                </mxCell>
                <mxCell id="gQHjPlM2CJMaZ_1cljnZ-4" value="" style="endArrow=none;html=1;rounded=0;exitX=1;exitY=1;exitDx=0;exitDy=0;entryX=0;entryY=0;entryDx=0;entryDy=0;" parent="1" source="gQHjPlM2CJMaZ_1cljnZ-1" target="gQHjPlM2CJMaZ_1cljnZ-3" edge="1">
                    <mxGeometry width="50" height="50" relative="1" as="geometry">
                        <mxPoint x="-531.29" y="148.87" as="sourcePoint"/>
                        <mxPoint x="-481.29" y="98.86999999999999" as="targetPoint"/>
                    </mxGeometry>
                </mxCell>
                <mxCell id="gQHjPlM2CJMaZ_1cljnZ-5" value="" style="endArrow=none;html=1;rounded=0;exitX=1;exitY=0.5;exitDx=0;exitDy=0;entryX=0;entryY=0.5;entryDx=0;entryDy=0;" parent="1" source="gQHjPlM2CJMaZ_1cljnZ-1" target="gQHjPlM2CJMaZ_1cljnZ-2" edge="1">
                    <mxGeometry width="50" height="50" relative="1" as="geometry">
                        <mxPoint x="-711.29" y="-41.13000000000001" as="sourcePoint"/>
                        <mxPoint x="-649.29" y="60.870000000000005" as="targetPoint"/>
                    </mxGeometry>
                </mxCell>
                <mxCell id="gQHjPlM2CJMaZ_1cljnZ-6" value="" style="endArrow=none;html=1;rounded=0;exitX=0;exitY=1;exitDx=0;exitDy=0;entryX=1;entryY=0;entryDx=0;entryDy=0;" parent="1" source="gQHjPlM2CJMaZ_1cljnZ-2" target="gQHjPlM2CJMaZ_1cljnZ-3" edge="1">
                    <mxGeometry width="50" height="50" relative="1" as="geometry">
                        <mxPoint x="-711.29" y="-41.13000000000001" as="sourcePoint"/>
                        <mxPoint x="-649.29" y="60.870000000000005" as="targetPoint"/>
                    </mxGeometry>
                </mxCell>
                <mxCell id="gQHjPlM2CJMaZ_1cljnZ-7" value="" style="endArrow=classic;html=1;rounded=0;entryX=0;entryY=0.5;entryDx=0;entryDy=0;exitX=1;exitY=0.5;exitDx=0;exitDy=0;" parent="1" source="gQHjPlM2CJMaZ_1cljnZ-12" target="gQHjPlM2CJMaZ_1cljnZ-1" edge="1">
                    <mxGeometry width="50" height="50" relative="1" as="geometry">
                        <mxPoint x="-851.29" y="-91.13000000000001" as="sourcePoint"/>
                        <mxPoint x="-481.29" y="98.86999999999999" as="targetPoint"/>
                    </mxGeometry>
                </mxCell>
                <mxCell id="gQHjPlM2CJMaZ_1cljnZ-8" value="" style="endArrow=classic;html=1;rounded=0;entryX=1;entryY=0;entryDx=0;entryDy=0;exitX=0;exitY=0.5;exitDx=0;exitDy=0;" parent="1" source="gQHjPlM2CJMaZ_1cljnZ-13" target="gQHjPlM2CJMaZ_1cljnZ-2" edge="1">
                    <mxGeometry width="50" height="50" relative="1" as="geometry">
                        <mxPoint x="-421.29" y="-161.13000000000002" as="sourcePoint"/>
                        <mxPoint x="-481.29" y="98.86999999999999" as="targetPoint"/>
                    </mxGeometry>
                </mxCell>
                <mxCell id="gQHjPlM2CJMaZ_1cljnZ-9" value="" style="endArrow=classic;html=1;rounded=0;entryX=1;entryY=1;entryDx=0;entryDy=0;exitX=0;exitY=0.5;exitDx=0;exitDy=0;" parent="1" source="gQHjPlM2CJMaZ_1cljnZ-14" target="gQHjPlM2CJMaZ_1cljnZ-3" edge="1">
                    <mxGeometry width="50" height="50" relative="1" as="geometry">
                        <mxPoint x="-541.29" y="168.87" as="sourcePoint"/>
                        <mxPoint x="-481.29" y="98.86999999999999" as="targetPoint"/>
                    </mxGeometry>
                </mxCell>
                <mxCell id="gQHjPlM2CJMaZ_1cljnZ-11" value="" style="endArrow=classic;html=1;rounded=0;entryX=0;entryY=1;entryDx=0;entryDy=0;exitX=1;exitY=0.25;exitDx=0;exitDy=0;" parent="1" source="gQHjPlM2CJMaZ_1cljnZ-15" target="gQHjPlM2CJMaZ_1cljnZ-3" edge="1">
                    <mxGeometry width="50" height="50" relative="1" as="geometry">
                        <mxPoint x="-701.29" y="148.87" as="sourcePoint"/>
                        <mxPoint x="-481.29" y="98.86999999999999" as="targetPoint"/>
                    </mxGeometry>
                </mxCell>
                <mxCell id="gQHjPlM2CJMaZ_1cljnZ-12" value="T1" style="rounded=1;whiteSpace=wrap;html=1;" parent="1" vertex="1">
                    <mxGeometry x="-841.29" y="-106.13000000000001" width="40" height="30" as="geometry"/>
                </mxCell>
                <mxCell id="gQHjPlM2CJMaZ_1cljnZ-13" value="T2" style="rounded=1;whiteSpace=wrap;html=1;" parent="1" vertex="1">
                    <mxGeometry x="-451.29" y="-151.13000000000002" width="40" height="30" as="geometry"/>
                </mxCell>
                <mxCell id="gQHjPlM2CJMaZ_1cljnZ-14" value="T3" style="rounded=1;whiteSpace=wrap;html=1;" parent="1" vertex="1">
                    <mxGeometry x="-561.29" y="118.86999999999999" width="40" height="30" as="geometry"/>
                </mxCell>
                <mxCell id="gQHjPlM2CJMaZ_1cljnZ-15" value="T4" style="rounded=1;whiteSpace=wrap;html=1;" parent="1" vertex="1">
                    <mxGeometry x="-711.29" y="128.87" width="40" height="30" as="geometry"/>
                </mxCell>
                <mxCell id="W_Fl8U6niNGUEY-Sqnad-846" value="" style="group" parent="1" vertex="1" connectable="0">
                    <mxGeometry x="434" y="1730" width="1160" height="651" as="geometry"/>
                </mxCell>
                <mxCell id="W_Fl8U6niNGUEY-Sqnad-847" value="" style="group" parent="W_Fl8U6niNGUEY-Sqnad-846" vertex="1" connectable="0">
                    <mxGeometry x="200" width="80" height="110" as="geometry"/>
                </mxCell>
                <mxCell id="W_Fl8U6niNGUEY-Sqnad-848" value="n_1" style="ellipse;whiteSpace=wrap;html=1;aspect=fixed;fillColor=#dae8fc;strokeColor=#6c8ebf;" parent="W_Fl8U6niNGUEY-Sqnad-847" vertex="1">
                    <mxGeometry width="80" height="80" as="geometry"/>
                </mxCell>
                <mxCell id="W_Fl8U6niNGUEY-Sqnad-849" value="flow_n" style="rounded=0;whiteSpace=wrap;html=1;fillColor=#dae8fc;strokeColor=#6c8ebf;" parent="W_Fl8U6niNGUEY-Sqnad-847" vertex="1">
                    <mxGeometry x="15" y="80" width="50" height="30" as="geometry"/>
                </mxCell>
                <mxCell id="W_Fl8U6niNGUEY-Sqnad-850" value="" style="group" parent="W_Fl8U6niNGUEY-Sqnad-846" vertex="1" connectable="0">
                    <mxGeometry x="370" width="80" height="110" as="geometry"/>
                </mxCell>
                <mxCell id="W_Fl8U6niNGUEY-Sqnad-851" value="n_2" style="ellipse;whiteSpace=wrap;html=1;aspect=fixed;fillColor=#dae8fc;strokeColor=#6c8ebf;" parent="W_Fl8U6niNGUEY-Sqnad-850" vertex="1">
                    <mxGeometry width="80" height="80" as="geometry"/>
                </mxCell>
                <mxCell id="W_Fl8U6niNGUEY-Sqnad-852" value="flow_n" style="rounded=0;whiteSpace=wrap;html=1;fillColor=#dae8fc;strokeColor=#6c8ebf;" parent="W_Fl8U6niNGUEY-Sqnad-850" vertex="1">
                    <mxGeometry x="15" y="80" width="50" height="30" as="geometry"/>
                </mxCell>
                <mxCell id="W_Fl8U6niNGUEY-Sqnad-853" value="" style="group" parent="W_Fl8U6niNGUEY-Sqnad-846" vertex="1" connectable="0">
                    <mxGeometry x="530" width="80" height="110" as="geometry"/>
                </mxCell>
                <mxCell id="W_Fl8U6niNGUEY-Sqnad-854" value="n_3" style="ellipse;whiteSpace=wrap;html=1;aspect=fixed;fillColor=#dae8fc;strokeColor=#6c8ebf;" parent="W_Fl8U6niNGUEY-Sqnad-853" vertex="1">
                    <mxGeometry width="80" height="80" as="geometry"/>
                </mxCell>
                <mxCell id="W_Fl8U6niNGUEY-Sqnad-855" value="flow_n" style="rounded=0;whiteSpace=wrap;html=1;fillColor=#dae8fc;strokeColor=#6c8ebf;" parent="W_Fl8U6niNGUEY-Sqnad-853" vertex="1">
                    <mxGeometry x="15" y="80" width="50" height="30" as="geometry"/>
                </mxCell>
                <mxCell id="W_Fl8U6niNGUEY-Sqnad-856" value="" style="group" parent="W_Fl8U6niNGUEY-Sqnad-846" vertex="1" connectable="0">
                    <mxGeometry x="840" y="250" width="80" height="90" as="geometry"/>
                </mxCell>
                <mxCell id="W_Fl8U6niNGUEY-Sqnad-857" value="prod_1" style="rounded=1;whiteSpace=wrap;html=1;" parent="W_Fl8U6niNGUEY-Sqnad-856" vertex="1">
                    <mxGeometry y="30" width="80" height="30" as="geometry"/>
                </mxCell>
                <mxCell id="W_Fl8U6niNGUEY-Sqnad-858" value="flow_p" style="rounded=0;whiteSpace=wrap;html=1;fillColor=#dae8fc;strokeColor=#6c8ebf;" parent="W_Fl8U6niNGUEY-Sqnad-856" vertex="1">
                    <mxGeometry x="15" width="50" height="30" as="geometry"/>
                </mxCell>
                <mxCell id="W_Fl8U6niNGUEY-Sqnad-859" value="res_r" style="rounded=0;whiteSpace=wrap;html=1;fillColor=#d5e8d4;strokeColor=#82b366;" parent="W_Fl8U6niNGUEY-Sqnad-856" vertex="1">
                    <mxGeometry x="15" y="60" width="50" height="30" as="geometry"/>
                </mxCell>
                <mxCell id="W_Fl8U6niNGUEY-Sqnad-860" value="" style="group" parent="W_Fl8U6niNGUEY-Sqnad-846" vertex="1" connectable="0">
                    <mxGeometry x="-124" y="250" width="80" height="90" as="geometry"/>
                </mxCell>
                <mxCell id="W_Fl8U6niNGUEY-Sqnad-861" value="prod_4" style="rounded=1;whiteSpace=wrap;html=1;" parent="W_Fl8U6niNGUEY-Sqnad-860" vertex="1">
                    <mxGeometry y="30" width="80" height="30" as="geometry"/>
                </mxCell>
                <mxCell id="W_Fl8U6niNGUEY-Sqnad-862" value="flow_p" style="rounded=0;whiteSpace=wrap;html=1;fillColor=#dae8fc;strokeColor=#6c8ebf;" parent="W_Fl8U6niNGUEY-Sqnad-860" vertex="1">
                    <mxGeometry x="15" width="50" height="30" as="geometry"/>
                </mxCell>
                <mxCell id="W_Fl8U6niNGUEY-Sqnad-863" value="res_r" style="rounded=0;whiteSpace=wrap;html=1;fillColor=#D5E8D4;strokeColor=#d79b00;" parent="W_Fl8U6niNGUEY-Sqnad-860" vertex="1">
                    <mxGeometry x="15" y="60" width="50" height="30" as="geometry"/>
                </mxCell>
                <mxCell id="W_Fl8U6niNGUEY-Sqnad-864" value="" style="group" parent="W_Fl8U6niNGUEY-Sqnad-846" vertex="1" connectable="0">
                    <mxGeometry x="960" y="250" width="80" height="90" as="geometry"/>
                </mxCell>
                <mxCell id="W_Fl8U6niNGUEY-Sqnad-865" value="prod_2" style="rounded=1;whiteSpace=wrap;html=1;" parent="W_Fl8U6niNGUEY-Sqnad-864" vertex="1">
                    <mxGeometry y="30" width="80" height="30" as="geometry"/>
                </mxCell>
                <mxCell id="W_Fl8U6niNGUEY-Sqnad-866" value="flow_p" style="rounded=0;whiteSpace=wrap;html=1;fillColor=#dae8fc;strokeColor=#6c8ebf;" parent="W_Fl8U6niNGUEY-Sqnad-864" vertex="1">
                    <mxGeometry x="15" width="50" height="30" as="geometry"/>
                </mxCell>
                <mxCell id="W_Fl8U6niNGUEY-Sqnad-867" value="res_r" style="rounded=0;whiteSpace=wrap;html=1;fillColor=#d5e8d4;strokeColor=#82b366;" parent="W_Fl8U6niNGUEY-Sqnad-864" vertex="1">
                    <mxGeometry x="15" y="60" width="50" height="30" as="geometry"/>
                </mxCell>
                <mxCell id="W_Fl8U6niNGUEY-Sqnad-868" value="" style="group" parent="W_Fl8U6niNGUEY-Sqnad-846" vertex="1" connectable="0">
                    <mxGeometry x="1080" y="250" width="80" height="90" as="geometry"/>
                </mxCell>
                <mxCell id="W_Fl8U6niNGUEY-Sqnad-869" value="prod_3" style="rounded=1;whiteSpace=wrap;html=1;" parent="W_Fl8U6niNGUEY-Sqnad-868" vertex="1">
                    <mxGeometry y="30" width="80" height="30" as="geometry"/>
                </mxCell>
                <mxCell id="W_Fl8U6niNGUEY-Sqnad-870" value="flow_p" style="rounded=0;whiteSpace=wrap;html=1;fillColor=#dae8fc;strokeColor=#6c8ebf;" parent="W_Fl8U6niNGUEY-Sqnad-868" vertex="1">
                    <mxGeometry x="15" width="50" height="30" as="geometry"/>
                </mxCell>
                <mxCell id="W_Fl8U6niNGUEY-Sqnad-871" value="res_r" style="rounded=0;whiteSpace=wrap;html=1;fillColor=#d5e8d4;strokeColor=#82b366;" parent="W_Fl8U6niNGUEY-Sqnad-868" vertex="1">
                    <mxGeometry x="15" y="60" width="50" height="30" as="geometry"/>
                </mxCell>
                <mxCell id="W_Fl8U6niNGUEY-Sqnad-872" value="" style="group" parent="W_Fl8U6niNGUEY-Sqnad-846" vertex="1" connectable="0">
                    <mxGeometry x="175.99999999999997" y="230" width="121.73000000000002" height="150" as="geometry"/>
                </mxCell>
                <mxCell id="W_Fl8U6niNGUEY-Sqnad-873" value="l_12" style="ellipse;whiteSpace=wrap;html=1;" parent="W_Fl8U6niNGUEY-Sqnad-872" vertex="1">
                    <mxGeometry y="30" width="120" height="80" as="geometry"/>
                </mxCell>
                <mxCell id="W_Fl8U6niNGUEY-Sqnad-874" value="" style="group;fillColor=#dae8fc;strokeColor=#6c8ebf;" parent="W_Fl8U6niNGUEY-Sqnad-872" vertex="1" connectable="0">
                    <mxGeometry width="120" height="30" as="geometry"/>
                </mxCell>
                <mxCell id="W_Fl8U6niNGUEY-Sqnad-875" value="flow_from" style="rounded=0;whiteSpace=wrap;html=1;fillColor=#dae8fc;strokeColor=#6c8ebf;" parent="W_Fl8U6niNGUEY-Sqnad-874" vertex="1">
                    <mxGeometry width="54.54545454545454" height="30" as="geometry"/>
                </mxCell>
                <mxCell id="W_Fl8U6niNGUEY-Sqnad-876" value="flow_to" style="rounded=0;whiteSpace=wrap;html=1;fillColor=#dae8fc;strokeColor=#6c8ebf;" parent="W_Fl8U6niNGUEY-Sqnad-874" vertex="1">
                    <mxGeometry x="54.54545454545454" width="65.45454545454545" height="30" as="geometry"/>
                </mxCell>
                <mxCell id="W_Fl8U6niNGUEY-Sqnad-877" value="" style="group" parent="W_Fl8U6niNGUEY-Sqnad-872" vertex="1" connectable="0">
                    <mxGeometry x="-4.27" y="109" width="120.87" height="30" as="geometry"/>
                </mxCell>
                <mxCell id="W_Fl8U6niNGUEY-Sqnad-878" value="capa_from" style="rounded=0;whiteSpace=wrap;html=1;fillColor=#ffe6cc;strokeColor=#d79b00;" parent="W_Fl8U6niNGUEY-Sqnad-877" vertex="1">
                    <mxGeometry width="60.435" height="30" as="geometry"/>
                </mxCell>
                <mxCell id="W_Fl8U6niNGUEY-Sqnad-879" value="capa_to" style="rounded=0;whiteSpace=wrap;html=1;fillColor=#ffe6cc;strokeColor=#d79b00;" parent="W_Fl8U6niNGUEY-Sqnad-877" vertex="1">
                    <mxGeometry x="60.435" width="60.435" height="30" as="geometry"/>
                </mxCell>
                <mxCell id="W_Fl8U6niNGUEY-Sqnad-880" value="" style="group" parent="W_Fl8U6niNGUEY-Sqnad-846" vertex="1" connectable="0">
                    <mxGeometry x="341.73" y="230" width="121.73000000000002" height="140" as="geometry"/>
                </mxCell>
                <mxCell id="W_Fl8U6niNGUEY-Sqnad-881" value="l_13" style="ellipse;whiteSpace=wrap;html=1;" parent="W_Fl8U6niNGUEY-Sqnad-880" vertex="1">
                    <mxGeometry y="30" width="120" height="80" as="geometry"/>
                </mxCell>
                <mxCell id="W_Fl8U6niNGUEY-Sqnad-882" value="" style="group;fillColor=#dae8fc;strokeColor=#6c8ebf;" parent="W_Fl8U6niNGUEY-Sqnad-880" vertex="1" connectable="0">
                    <mxGeometry width="110" height="30" as="geometry"/>
                </mxCell>
                <mxCell id="W_Fl8U6niNGUEY-Sqnad-883" value="flow_from" style="rounded=0;whiteSpace=wrap;html=1;fillColor=#dae8fc;strokeColor=#6c8ebf;" parent="W_Fl8U6niNGUEY-Sqnad-882" vertex="1">
                    <mxGeometry width="55.00000000000001" height="30" as="geometry"/>
                </mxCell>
                <mxCell id="W_Fl8U6niNGUEY-Sqnad-884" value="flow_to" style="rounded=0;whiteSpace=wrap;html=1;fillColor=#dae8fc;strokeColor=#6c8ebf;" parent="W_Fl8U6niNGUEY-Sqnad-882" vertex="1">
                    <mxGeometry x="55.00000000000001" width="55.00000000000001" height="30" as="geometry"/>
                </mxCell>
                <mxCell id="W_Fl8U6niNGUEY-Sqnad-885" value="" style="group" parent="W_Fl8U6niNGUEY-Sqnad-880" vertex="1" connectable="0">
                    <mxGeometry y="109" width="120" height="30" as="geometry"/>
                </mxCell>
                <mxCell id="W_Fl8U6niNGUEY-Sqnad-886" value="capa_from" style="rounded=0;whiteSpace=wrap;html=1;fillColor=#ffe6cc;strokeColor=#d79b00;" parent="W_Fl8U6niNGUEY-Sqnad-885" vertex="1">
                    <mxGeometry width="60" height="30" as="geometry"/>
                </mxCell>
                <mxCell id="W_Fl8U6niNGUEY-Sqnad-887" value="capa_to" style="rounded=0;whiteSpace=wrap;html=1;fillColor=#ffe6cc;strokeColor=#d79b00;" parent="W_Fl8U6niNGUEY-Sqnad-885" vertex="1">
                    <mxGeometry x="60" width="60" height="30" as="geometry"/>
                </mxCell>
                <mxCell id="W_Fl8U6niNGUEY-Sqnad-888" value="" style="group" parent="W_Fl8U6niNGUEY-Sqnad-846" vertex="1" connectable="0">
                    <mxGeometry x="531.73" y="230" width="121.73000000000002" height="140" as="geometry"/>
                </mxCell>
                <mxCell id="W_Fl8U6niNGUEY-Sqnad-889" value="l_23" style="ellipse;whiteSpace=wrap;html=1;" parent="W_Fl8U6niNGUEY-Sqnad-888" vertex="1">
                    <mxGeometry y="30" width="120" height="80" as="geometry"/>
                </mxCell>
                <mxCell id="W_Fl8U6niNGUEY-Sqnad-890" value="" style="group;fillColor=#dae8fc;strokeColor=#6c8ebf;" parent="W_Fl8U6niNGUEY-Sqnad-888" vertex="1" connectable="0">
                    <mxGeometry width="110" height="30" as="geometry"/>
                </mxCell>
                <mxCell id="W_Fl8U6niNGUEY-Sqnad-891" value="flow_from" style="rounded=0;whiteSpace=wrap;html=1;fillColor=#dae8fc;strokeColor=#6c8ebf;" parent="W_Fl8U6niNGUEY-Sqnad-890" vertex="1">
                    <mxGeometry width="55.00000000000001" height="30" as="geometry"/>
                </mxCell>
                <mxCell id="W_Fl8U6niNGUEY-Sqnad-892" value="flow_to" style="rounded=0;whiteSpace=wrap;html=1;fillColor=#dae8fc;strokeColor=#6c8ebf;" parent="W_Fl8U6niNGUEY-Sqnad-890" vertex="1">
                    <mxGeometry x="55.00000000000001" width="55.00000000000001" height="30" as="geometry"/>
                </mxCell>
                <mxCell id="W_Fl8U6niNGUEY-Sqnad-893" value="" style="group;fillColor=#ffe6cc;strokeColor=#d79b00;" parent="W_Fl8U6niNGUEY-Sqnad-888" vertex="1" connectable="0">
                    <mxGeometry y="110" width="120" height="30" as="geometry"/>
                </mxCell>
                <mxCell id="W_Fl8U6niNGUEY-Sqnad-894" value="capa_from" style="rounded=0;whiteSpace=wrap;html=1;fillColor=#ffe6cc;strokeColor=#d79b00;" parent="W_Fl8U6niNGUEY-Sqnad-893" vertex="1">
                    <mxGeometry width="60" height="30" as="geometry"/>
                </mxCell>
                <mxCell id="W_Fl8U6niNGUEY-Sqnad-895" value="capa_to" style="rounded=0;whiteSpace=wrap;html=1;fillColor=#ffe6cc;strokeColor=#d79b00;" parent="W_Fl8U6niNGUEY-Sqnad-893" vertex="1">
                    <mxGeometry x="60" width="60" height="30" as="geometry"/>
                </mxCell>
                <mxCell id="W_Fl8U6niNGUEY-Sqnad-896" value="" style="group" parent="W_Fl8U6niNGUEY-Sqnad-846" vertex="1" connectable="0">
                    <mxGeometry x="790" y="510" width="80" height="110" as="geometry"/>
                </mxCell>
                <mxCell id="W_Fl8U6niNGUEY-Sqnad-897" value="d_2_resint" style="ellipse;whiteSpace=wrap;html=1;aspect=fixed;fillColor=#d5e8d4;strokeColor=#82b366;" parent="W_Fl8U6niNGUEY-Sqnad-896" vertex="1">
                    <mxGeometry y="30" width="80" height="80" as="geometry"/>
                </mxCell>
                <mxCell id="W_Fl8U6niNGUEY-Sqnad-898" value="res_di" style="rounded=0;whiteSpace=wrap;html=1;fillColor=#d5e8d4;strokeColor=#82b366;" parent="W_Fl8U6niNGUEY-Sqnad-896" vertex="1">
                    <mxGeometry x="15" width="50" height="30" as="geometry"/>
                </mxCell>
                <mxCell id="W_Fl8U6niNGUEY-Sqnad-899" value="" style="group" parent="W_Fl8U6niNGUEY-Sqnad-846" vertex="1" connectable="0">
                    <mxGeometry x="-74" y="490" width="86" height="130" as="geometry"/>
                </mxCell>
                <mxCell id="W_Fl8U6niNGUEY-Sqnad-900" value="d_1_resint" style="ellipse;whiteSpace=wrap;html=1;aspect=fixed;fillColor=#D5E8D4;strokeColor=#d79b00;" parent="W_Fl8U6niNGUEY-Sqnad-899" vertex="1">
                    <mxGeometry y="50" width="80" height="80" as="geometry"/>
                </mxCell>
                <mxCell id="W_Fl8U6niNGUEY-Sqnad-901" value="res_di" style="rounded=0;whiteSpace=wrap;html=1;fillColor=#D5E8D4;strokeColor=#d79b00;" parent="W_Fl8U6niNGUEY-Sqnad-899" vertex="1">
                    <mxGeometry x="11.730000000000011" y="20" width="50" height="30" as="geometry"/>
                </mxCell>
                <mxCell id="W_Fl8U6niNGUEY-Sqnad-902" value="" style="group" parent="W_Fl8U6niNGUEY-Sqnad-846" vertex="1" connectable="0">
                    <mxGeometry x="906" y="560" width="100" height="90" as="geometry"/>
                </mxCell>
                <mxCell id="W_Fl8U6niNGUEY-Sqnad-903" value="demand_resint_2" style="rounded=1;whiteSpace=wrap;html=1;" parent="W_Fl8U6niNGUEY-Sqnad-902" vertex="1">
                    <mxGeometry y="60" width="100" height="30" as="geometry"/>
                </mxCell>
                <mxCell id="W_Fl8U6niNGUEY-Sqnad-904" value="res_d" style="rounded=0;whiteSpace=wrap;html=1;fillColor=#d5e8d4;strokeColor=#82b366;" parent="W_Fl8U6niNGUEY-Sqnad-902" vertex="1">
                    <mxGeometry x="15" y="30" width="50" height="30" as="geometry"/>
                </mxCell>
                <mxCell id="W_Fl8U6niNGUEY-Sqnad-905" value="" style="endArrow=classic;html=1;rounded=0;entryX=1;entryY=1;entryDx=0;entryDy=0;" parent="W_Fl8U6niNGUEY-Sqnad-846" target="W_Fl8U6niNGUEY-Sqnad-855" edge="1">
                    <mxGeometry width="50" height="50" relative="1" as="geometry">
                        <mxPoint x="976" y="250" as="sourcePoint"/>
                        <mxPoint x="1126" y="260" as="targetPoint"/>
                    </mxGeometry>
                </mxCell>
                <mxCell id="W_Fl8U6niNGUEY-Sqnad-906" value="" style="endArrow=classic;html=1;rounded=0;exitX=0.75;exitY=0;exitDx=0;exitDy=0;" parent="W_Fl8U6niNGUEY-Sqnad-846" source="W_Fl8U6niNGUEY-Sqnad-862" edge="1">
                    <mxGeometry width="50" height="50" relative="1" as="geometry">
                        <mxPoint x="445" y="113" as="sourcePoint"/>
                        <mxPoint x="216" y="90" as="targetPoint"/>
                    </mxGeometry>
                </mxCell>
                <mxCell id="W_Fl8U6niNGUEY-Sqnad-907" value="" style="endArrow=classic;html=1;rounded=0;entryX=1;entryY=0.25;entryDx=0;entryDy=0;exitX=0.25;exitY=0;exitDx=0;exitDy=0;" parent="W_Fl8U6niNGUEY-Sqnad-846" source="W_Fl8U6niNGUEY-Sqnad-870" target="W_Fl8U6niNGUEY-Sqnad-855" edge="1">
                    <mxGeometry width="50" height="50" relative="1" as="geometry">
                        <mxPoint x="1156" y="80" as="sourcePoint"/>
                        <mxPoint x="1116" y="250" as="targetPoint"/>
                    </mxGeometry>
                </mxCell>
                <mxCell id="W_Fl8U6niNGUEY-Sqnad-908" value="" style="endArrow=classic;html=1;rounded=0;exitX=0.5;exitY=0;exitDx=0;exitDy=0;entryX=0.25;entryY=1;entryDx=0;entryDy=0;" parent="W_Fl8U6niNGUEY-Sqnad-846" source="W_Fl8U6niNGUEY-Sqnad-876" target="W_Fl8U6niNGUEY-Sqnad-852" edge="1">
                    <mxGeometry width="50" height="50" relative="1" as="geometry">
                        <mxPoint x="249" y="300" as="sourcePoint"/>
                        <mxPoint x="246" y="120" as="targetPoint"/>
                    </mxGeometry>
                </mxCell>
                <mxCell id="W_Fl8U6niNGUEY-Sqnad-909" value="" style="endArrow=classic;html=1;rounded=0;exitX=0.5;exitY=0;exitDx=0;exitDy=0;entryX=0.75;entryY=1;entryDx=0;entryDy=0;" parent="W_Fl8U6niNGUEY-Sqnad-846" source="W_Fl8U6niNGUEY-Sqnad-883" target="W_Fl8U6niNGUEY-Sqnad-849" edge="1">
                    <mxGeometry width="50" height="50" relative="1" as="geometry">
                        <mxPoint x="249" y="300" as="sourcePoint"/>
                        <mxPoint x="246" y="120" as="targetPoint"/>
                    </mxGeometry>
                </mxCell>
                <mxCell id="W_Fl8U6niNGUEY-Sqnad-910" value="" style="endArrow=classic;html=1;rounded=0;exitX=0.5;exitY=0;exitDx=0;exitDy=0;entryX=0.75;entryY=1;entryDx=0;entryDy=0;" parent="W_Fl8U6niNGUEY-Sqnad-846" source="W_Fl8U6niNGUEY-Sqnad-891" target="W_Fl8U6niNGUEY-Sqnad-852" edge="1">
                    <mxGeometry width="50" height="50" relative="1" as="geometry">
                        <mxPoint x="465" y="300" as="sourcePoint"/>
                        <mxPoint x="556" y="110" as="targetPoint"/>
                    </mxGeometry>
                </mxCell>
                <mxCell id="W_Fl8U6niNGUEY-Sqnad-911" value="" style="endArrow=classic;html=1;rounded=0;entryX=1;entryY=0.5;entryDx=0;entryDy=0;exitX=0;exitY=0.5;exitDx=0;exitDy=0;" parent="W_Fl8U6niNGUEY-Sqnad-846" source="W_Fl8U6niNGUEY-Sqnad-858" target="W_Fl8U6niNGUEY-Sqnad-852" edge="1">
                    <mxGeometry width="50" height="50" relative="1" as="geometry">
                        <mxPoint x="986" y="260" as="sourcePoint"/>
                        <mxPoint x="605" y="120" as="targetPoint"/>
                    </mxGeometry>
                </mxCell>
                <mxCell id="W_Fl8U6niNGUEY-Sqnad-912" value="" style="endArrow=classic;html=1;rounded=0;exitX=0.75;exitY=1;exitDx=0;exitDy=0;entryX=0.5;entryY=0;entryDx=0;entryDy=0;" parent="W_Fl8U6niNGUEY-Sqnad-846" source="W_Fl8U6niNGUEY-Sqnad-863" target="W_Fl8U6niNGUEY-Sqnad-901" edge="1">
                    <mxGeometry width="50" height="50" relative="1" as="geometry">
                        <mxPoint x="890" y="350" as="sourcePoint"/>
                        <mxPoint x="96" y="490" as="targetPoint"/>
                    </mxGeometry>
                </mxCell>
                <mxCell id="W_Fl8U6niNGUEY-Sqnad-913" value="" style="group" parent="W_Fl8U6niNGUEY-Sqnad-846" vertex="1" connectable="0">
                    <mxGeometry x="476" y="510" width="80" height="110" as="geometry"/>
                </mxCell>
                <mxCell id="W_Fl8U6niNGUEY-Sqnad-914" value="d_2_resexc" style="ellipse;whiteSpace=wrap;html=1;aspect=fixed;fillColor=#1D911D;strokeColor=#82b366;" parent="W_Fl8U6niNGUEY-Sqnad-913" vertex="1">
                    <mxGeometry y="30" width="80" height="80" as="geometry"/>
                </mxCell>
                <mxCell id="W_Fl8U6niNGUEY-Sqnad-915" value="res_di" style="rounded=0;whiteSpace=wrap;html=1;fillColor=#1D911D;strokeColor=#82b366;" parent="W_Fl8U6niNGUEY-Sqnad-913" vertex="1">
                    <mxGeometry x="15" width="50" height="30" as="geometry"/>
                </mxCell>
                <mxCell id="W_Fl8U6niNGUEY-Sqnad-916" value="demand_resexc_2" style="rounded=1;whiteSpace=wrap;html=1;" parent="W_Fl8U6niNGUEY-Sqnad-846" vertex="1">
                    <mxGeometry x="562" y="620" width="114" height="30" as="geometry"/>
                </mxCell>
                <mxCell id="W_Fl8U6niNGUEY-Sqnad-917" value="flow_d" style="rounded=0;whiteSpace=wrap;html=1;fillColor=#d5e8d4;strokeColor=#82b366;" parent="W_Fl8U6niNGUEY-Sqnad-846" vertex="1">
                    <mxGeometry x="577" y="590" width="50" height="30" as="geometry"/>
                </mxCell>
                <mxCell id="W_Fl8U6niNGUEY-Sqnad-918" value="" style="endArrow=classic;html=1;rounded=0;entryX=0.5;entryY=1;entryDx=0;entryDy=0;exitX=0.75;exitY=0;exitDx=0;exitDy=0;" parent="W_Fl8U6niNGUEY-Sqnad-846" source="W_Fl8U6niNGUEY-Sqnad-892" target="W_Fl8U6niNGUEY-Sqnad-855" edge="1">
                    <mxGeometry width="50" height="50" relative="1" as="geometry">
                        <mxPoint x="656" y="290" as="sourcePoint"/>
                        <mxPoint x="433" y="120" as="targetPoint"/>
                    </mxGeometry>
                </mxCell>
                <mxCell id="W_Fl8U6niNGUEY-Sqnad-919" value="" style="endArrow=classic;html=1;rounded=0;entryX=1;entryY=0.75;entryDx=0;entryDy=0;exitX=0.5;exitY=0;exitDx=0;exitDy=0;" parent="W_Fl8U6niNGUEY-Sqnad-846" source="W_Fl8U6niNGUEY-Sqnad-917" target="W_Fl8U6niNGUEY-Sqnad-915" edge="1">
                    <mxGeometry width="50" height="50" relative="1" as="geometry">
                        <mxPoint x="581" y="575" as="sourcePoint"/>
                        <mxPoint x="521" y="692" as="targetPoint"/>
                    </mxGeometry>
                </mxCell>
                <mxCell id="W_Fl8U6niNGUEY-Sqnad-920" value="" style="endArrow=classic;html=1;rounded=0;exitX=0.5;exitY=1;exitDx=0;exitDy=0;entryX=1;entryY=0;entryDx=0;entryDy=0;" parent="W_Fl8U6niNGUEY-Sqnad-846" source="W_Fl8U6niNGUEY-Sqnad-867" target="W_Fl8U6niNGUEY-Sqnad-898" edge="1">
                    <mxGeometry width="50" height="50" relative="1" as="geometry">
                        <mxPoint x="890" y="350" as="sourcePoint"/>
                        <mxPoint x="846" y="520" as="targetPoint"/>
                    </mxGeometry>
                </mxCell>
                <mxCell id="W_Fl8U6niNGUEY-Sqnad-921" value="" style="endArrow=classic;html=1;rounded=0;exitX=0.5;exitY=0;exitDx=0;exitDy=0;entryX=1;entryY=0.5;entryDx=0;entryDy=0;" parent="W_Fl8U6niNGUEY-Sqnad-846" source="W_Fl8U6niNGUEY-Sqnad-904" target="W_Fl8U6niNGUEY-Sqnad-898" edge="1">
                    <mxGeometry width="50" height="50" relative="1" as="geometry">
                        <mxPoint x="1118" y="350" as="sourcePoint"/>
                        <mxPoint x="863" y="530" as="targetPoint"/>
                    </mxGeometry>
                </mxCell>
                <mxCell id="W_Fl8U6niNGUEY-Sqnad-922" value="" style="endArrow=classic;html=1;rounded=0;exitX=0.25;exitY=1;exitDx=0;exitDy=0;entryX=1;entryY=0.25;entryDx=0;entryDy=0;" parent="W_Fl8U6niNGUEY-Sqnad-846" source="W_Fl8U6niNGUEY-Sqnad-871" target="W_Fl8U6niNGUEY-Sqnad-898" edge="1">
                    <mxGeometry width="50" height="50" relative="1" as="geometry">
                        <mxPoint x="1010" y="350" as="sourcePoint"/>
                        <mxPoint x="856" y="530" as="targetPoint"/>
                    </mxGeometry>
                </mxCell>
                <mxCell id="W_Fl8U6niNGUEY-Sqnad-923" value="" style="endArrow=classic;html=1;rounded=0;exitX=0.5;exitY=1;exitDx=0;exitDy=0;entryX=0.75;entryY=0;entryDx=0;entryDy=0;" parent="W_Fl8U6niNGUEY-Sqnad-846" source="W_Fl8U6niNGUEY-Sqnad-859" target="W_Fl8U6niNGUEY-Sqnad-898" edge="1">
                    <mxGeometry width="50" height="50" relative="1" as="geometry">
                        <mxPoint x="986" y="260" as="sourcePoint"/>
                        <mxPoint x="856" y="510" as="targetPoint"/>
                    </mxGeometry>
                </mxCell>
                <mxCell id="W_Fl8U6niNGUEY-Sqnad-924" value="" style="endArrow=classic;html=1;rounded=0;exitX=0.5;exitY=1;exitDx=0;exitDy=0;entryX=0.5;entryY=0;entryDx=0;entryDy=0;" parent="W_Fl8U6niNGUEY-Sqnad-846" source="W_Fl8U6niNGUEY-Sqnad-878" target="W_Fl8U6niNGUEY-Sqnad-951" edge="1">
                    <mxGeometry width="50" height="50" relative="1" as="geometry">
                        <mxPoint x="81" y="505" as="sourcePoint"/>
                        <mxPoint x="196.26999999999998" y="430" as="targetPoint"/>
                    </mxGeometry>
                </mxCell>
                <mxCell id="W_Fl8U6niNGUEY-Sqnad-925" value="" style="endArrow=classic;html=1;rounded=0;exitX=0.5;exitY=1;exitDx=0;exitDy=0;entryX=0;entryY=0.25;entryDx=0;entryDy=0;" parent="W_Fl8U6niNGUEY-Sqnad-846" source="W_Fl8U6niNGUEY-Sqnad-886" target="W_Fl8U6niNGUEY-Sqnad-959" edge="1">
                    <mxGeometry width="50" height="50" relative="1" as="geometry">
                        <mxPoint x="81" y="543" as="sourcePoint"/>
                        <mxPoint x="406.27" y="450" as="targetPoint"/>
                    </mxGeometry>
                </mxCell>
                <mxCell id="W_Fl8U6niNGUEY-Sqnad-926" value="" style="endArrow=classic;html=1;rounded=0;entryX=0.5;entryY=0;entryDx=0;entryDy=0;" parent="W_Fl8U6niNGUEY-Sqnad-846" source="W_Fl8U6niNGUEY-Sqnad-879" target="W_Fl8U6niNGUEY-Sqnad-955" edge="1">
                    <mxGeometry width="50" height="50" relative="1" as="geometry">
                        <mxPoint x="81" y="475" as="sourcePoint"/>
                        <mxPoint x="396" y="550" as="targetPoint"/>
                    </mxGeometry>
                </mxCell>
                <mxCell id="W_Fl8U6niNGUEY-Sqnad-927" value="" style="endArrow=classic;html=1;rounded=0;entryX=0;entryY=0.25;entryDx=0;entryDy=0;exitX=0.25;exitY=1;exitDx=0;exitDy=0;" parent="W_Fl8U6niNGUEY-Sqnad-846" source="W_Fl8U6niNGUEY-Sqnad-887" target="W_Fl8U6niNGUEY-Sqnad-962" edge="1">
                    <mxGeometry width="50" height="50" relative="1" as="geometry">
                        <mxPoint x="288" y="379" as="sourcePoint"/>
                        <mxPoint x="561" y="640" as="targetPoint"/>
                    </mxGeometry>
                </mxCell>
                <mxCell id="W_Fl8U6niNGUEY-Sqnad-928" value="conv_res_Int_ext_2" style="rounded=1;whiteSpace=wrap;html=1;" parent="W_Fl8U6niNGUEY-Sqnad-846" vertex="1">
                    <mxGeometry x="629" y="535.5" width="111" height="30" as="geometry"/>
                </mxCell>
                <mxCell id="W_Fl8U6niNGUEY-Sqnad-929" value="" style="endArrow=classic;html=1;rounded=0;entryX=0;entryY=0.5;entryDx=0;entryDy=0;exitX=1;exitY=0.5;exitDx=0;exitDy=0;" parent="W_Fl8U6niNGUEY-Sqnad-846" source="W_Fl8U6niNGUEY-Sqnad-931" target="W_Fl8U6niNGUEY-Sqnad-898" edge="1">
                    <mxGeometry width="50" height="50" relative="1" as="geometry">
                        <mxPoint x="650" y="515.5" as="sourcePoint"/>
                        <mxPoint x="805" y="533" as="targetPoint"/>
                    </mxGeometry>
                </mxCell>
                <mxCell id="W_Fl8U6niNGUEY-Sqnad-930" value="res_out" style="rounded=0;whiteSpace=wrap;html=1;fillColor=#D5E8D4;strokeColor=#d79b00;" parent="W_Fl8U6niNGUEY-Sqnad-846" vertex="1">
                    <mxGeometry x="626" y="518.5" width="50" height="17" as="geometry"/>
                </mxCell>
                <mxCell id="W_Fl8U6niNGUEY-Sqnad-931" value="res_in" style="rounded=0;whiteSpace=wrap;html=1;fillColor=#d5e8d4;strokeColor=#82b366;" parent="W_Fl8U6niNGUEY-Sqnad-846" vertex="1">
                    <mxGeometry x="676" y="518.5" width="50" height="17" as="geometry"/>
                </mxCell>
                <mxCell id="W_Fl8U6niNGUEY-Sqnad-932" value="" style="endArrow=classic;html=1;rounded=0;entryX=1;entryY=0.5;entryDx=0;entryDy=0;exitX=0;exitY=0.5;exitDx=0;exitDy=0;" parent="W_Fl8U6niNGUEY-Sqnad-846" source="W_Fl8U6niNGUEY-Sqnad-930" target="W_Fl8U6niNGUEY-Sqnad-915" edge="1">
                    <mxGeometry width="50" height="50" relative="1" as="geometry">
                        <mxPoint x="601" y="590.5" as="sourcePoint"/>
                        <mxPoint x="561" y="548.5" as="targetPoint"/>
                    </mxGeometry>
                </mxCell>
                <mxCell id="W_Fl8U6niNGUEY-Sqnad-933" value="conv_res_Int_ext_1" style="rounded=1;whiteSpace=wrap;html=1;" parent="W_Fl8U6niNGUEY-Sqnad-846" vertex="1">
                    <mxGeometry x="65" y="535.5" width="111" height="30" as="geometry"/>
                </mxCell>
                <mxCell id="W_Fl8U6niNGUEY-Sqnad-934" value="" style="endArrow=classic;html=1;rounded=0;entryX=0;entryY=0.5;entryDx=0;entryDy=0;exitX=1;exitY=0.5;exitDx=0;exitDy=0;" parent="W_Fl8U6niNGUEY-Sqnad-846" source="W_Fl8U6niNGUEY-Sqnad-936" target="W_Fl8U6niNGUEY-Sqnad-940" edge="1">
                    <mxGeometry width="50" height="50" relative="1" as="geometry">
                        <mxPoint x="206" y="537" as="sourcePoint"/>
                        <mxPoint x="248" y="536.5" as="targetPoint"/>
                    </mxGeometry>
                </mxCell>
                <mxCell id="W_Fl8U6niNGUEY-Sqnad-935" value="res_in" style="rounded=0;whiteSpace=wrap;html=1;fillColor=#D5E8D4;strokeColor=#82B366;" parent="W_Fl8U6niNGUEY-Sqnad-846" vertex="1">
                    <mxGeometry x="62" y="518.5" width="50" height="17" as="geometry"/>
                </mxCell>
                <mxCell id="W_Fl8U6niNGUEY-Sqnad-936" value="res_out" style="rounded=0;whiteSpace=wrap;html=1;fillColor=#D5E8D4;strokeColor=#82b366;" parent="W_Fl8U6niNGUEY-Sqnad-846" vertex="1">
                    <mxGeometry x="112" y="518.5" width="50" height="17" as="geometry"/>
                </mxCell>
                <mxCell id="W_Fl8U6niNGUEY-Sqnad-937" value="" style="endArrow=classic;html=1;rounded=0;entryX=1;entryY=0.5;entryDx=0;entryDy=0;exitX=0;exitY=0.5;exitDx=0;exitDy=0;" parent="W_Fl8U6niNGUEY-Sqnad-846" source="W_Fl8U6niNGUEY-Sqnad-935" target="W_Fl8U6niNGUEY-Sqnad-901" edge="1">
                    <mxGeometry width="50" height="50" relative="1" as="geometry">
                        <mxPoint x="33.730000000000004" y="534.75" as="sourcePoint"/>
                        <mxPoint x="-16.27" y="532.75" as="targetPoint"/>
                    </mxGeometry>
                </mxCell>
                <mxCell id="W_Fl8U6niNGUEY-Sqnad-938" value="" style="group" parent="W_Fl8U6niNGUEY-Sqnad-846" vertex="1" connectable="0">
                    <mxGeometry x="234" y="510" width="80" height="110" as="geometry"/>
                </mxCell>
                <mxCell id="W_Fl8U6niNGUEY-Sqnad-939" value="d_1_resexc" style="ellipse;whiteSpace=wrap;html=1;aspect=fixed;fillColor=#1D911D;strokeColor=#82b366;" parent="W_Fl8U6niNGUEY-Sqnad-938" vertex="1">
                    <mxGeometry y="30" width="80" height="80" as="geometry"/>
                </mxCell>
                <mxCell id="W_Fl8U6niNGUEY-Sqnad-940" value="res_di" style="rounded=0;whiteSpace=wrap;html=1;fillColor=#1D911D;strokeColor=#82b366;" parent="W_Fl8U6niNGUEY-Sqnad-938" vertex="1">
                    <mxGeometry x="15" width="50" height="30" as="geometry"/>
                </mxCell>
                <mxCell id="W_Fl8U6niNGUEY-Sqnad-941" value="demand_resexc_1" style="rounded=1;whiteSpace=wrap;html=1;" parent="W_Fl8U6niNGUEY-Sqnad-846" vertex="1">
                    <mxGeometry x="116" y="621" width="106" height="30" as="geometry"/>
                </mxCell>
                <mxCell id="W_Fl8U6niNGUEY-Sqnad-942" value="flow_d" style="rounded=0;whiteSpace=wrap;html=1;fillColor=#d5e8d4;strokeColor=#82b366;" parent="W_Fl8U6niNGUEY-Sqnad-846" vertex="1">
                    <mxGeometry x="131" y="591" width="50" height="30" as="geometry"/>
                </mxCell>
                <mxCell id="W_Fl8U6niNGUEY-Sqnad-943" value="" style="endArrow=classic;html=1;rounded=0;entryX=0;entryY=0.75;entryDx=0;entryDy=0;exitX=0.5;exitY=0;exitDx=0;exitDy=0;" parent="W_Fl8U6niNGUEY-Sqnad-846" source="W_Fl8U6niNGUEY-Sqnad-942" target="W_Fl8U6niNGUEY-Sqnad-940" edge="1">
                    <mxGeometry width="50" height="50" relative="1" as="geometry">
                        <mxPoint x="276" y="735.5" as="sourcePoint"/>
                        <mxPoint x="219" y="707.5" as="targetPoint"/>
                    </mxGeometry>
                </mxCell>
                <mxCell id="W_Fl8U6niNGUEY-Sqnad-950" value="Converter_res_capa" style="rounded=1;whiteSpace=wrap;html=1;" parent="W_Fl8U6niNGUEY-Sqnad-846" vertex="1">
                    <mxGeometry x="65.00000000000001" y="420" width="113.73" height="30" as="geometry"/>
                </mxCell>
                <mxCell id="W_Fl8U6niNGUEY-Sqnad-951" value="capa_d" style="rounded=0;whiteSpace=wrap;html=1;fillColor=#d5e8d4;strokeColor=#82b366;" parent="W_Fl8U6niNGUEY-Sqnad-846" vertex="1">
                    <mxGeometry x="79.99999999999999" y="390" width="50" height="30" as="geometry"/>
                </mxCell>
                <mxCell id="W_Fl8U6niNGUEY-Sqnad-952" value="res_d" style="rounded=0;whiteSpace=wrap;html=1;fillColor=#d5e8d4;strokeColor=#82b366;" parent="W_Fl8U6niNGUEY-Sqnad-846" vertex="1">
                    <mxGeometry x="92.99999999999999" y="450" width="50" height="30" as="geometry"/>
                </mxCell>
                <mxCell id="W_Fl8U6niNGUEY-Sqnad-954" value="Converter_res_capa" style="rounded=1;whiteSpace=wrap;html=1;" parent="W_Fl8U6niNGUEY-Sqnad-846" vertex="1">
                    <mxGeometry x="200" y="420" width="113.73" height="30" as="geometry"/>
                </mxCell>
                <mxCell id="W_Fl8U6niNGUEY-Sqnad-955" value="capa_d" style="rounded=0;whiteSpace=wrap;html=1;fillColor=#d5e8d4;strokeColor=#82b366;" parent="W_Fl8U6niNGUEY-Sqnad-846" vertex="1">
                    <mxGeometry x="215" y="390" width="50" height="30" as="geometry"/>
                </mxCell>
                <mxCell id="W_Fl8U6niNGUEY-Sqnad-956" value="res_d" style="rounded=0;whiteSpace=wrap;html=1;fillColor=#d5e8d4;strokeColor=#82b366;" parent="W_Fl8U6niNGUEY-Sqnad-846" vertex="1">
                    <mxGeometry x="228" y="450" width="50" height="30" as="geometry"/>
                </mxCell>
                <mxCell id="W_Fl8U6niNGUEY-Sqnad-957" value="" style="endArrow=classic;html=1;rounded=0;entryX=0;entryY=0.5;entryDx=0;entryDy=0;exitX=0.5;exitY=1;exitDx=0;exitDy=0;" parent="W_Fl8U6niNGUEY-Sqnad-846" source="W_Fl8U6niNGUEY-Sqnad-956" target="W_Fl8U6niNGUEY-Sqnad-915" edge="1">
                    <mxGeometry width="50" height="50" relative="1" as="geometry">
                        <mxPoint x="370" y="518.5" as="sourcePoint"/>
                        <mxPoint x="442" y="569.5" as="targetPoint"/>
                    </mxGeometry>
                </mxCell>
                <mxCell id="W_Fl8U6niNGUEY-Sqnad-958" value="Converter_res_capa" style="rounded=1;whiteSpace=wrap;html=1;" parent="W_Fl8U6niNGUEY-Sqnad-846" vertex="1">
                    <mxGeometry x="406.27" y="420" width="113.73" height="30" as="geometry"/>
                </mxCell>
                <mxCell id="W_Fl8U6niNGUEY-Sqnad-959" value="capa_d" style="rounded=0;whiteSpace=wrap;html=1;fillColor=#d5e8d4;strokeColor=#82b366;" parent="W_Fl8U6niNGUEY-Sqnad-846" vertex="1">
                    <mxGeometry x="421.27" y="390" width="50" height="30" as="geometry"/>
                </mxCell>
                <mxCell id="W_Fl8U6niNGUEY-Sqnad-960" value="res_d" style="rounded=0;whiteSpace=wrap;html=1;fillColor=#d5e8d4;strokeColor=#82b366;" parent="W_Fl8U6niNGUEY-Sqnad-846" vertex="1">
                    <mxGeometry x="434.27" y="450" width="50" height="30" as="geometry"/>
                </mxCell>
                <mxCell id="W_Fl8U6niNGUEY-Sqnad-961" value="Converter_res_capa" style="rounded=1;whiteSpace=wrap;html=1;" parent="W_Fl8U6niNGUEY-Sqnad-846" vertex="1">
                    <mxGeometry x="523.13" y="420" width="113.73" height="30" as="geometry"/>
                </mxCell>
                <mxCell id="W_Fl8U6niNGUEY-Sqnad-962" value="capa_d" style="rounded=0;whiteSpace=wrap;html=1;fillColor=#d5e8d4;strokeColor=#82b366;" parent="W_Fl8U6niNGUEY-Sqnad-846" vertex="1">
                    <mxGeometry x="538.13" y="390" width="50" height="30" as="geometry"/>
                </mxCell>
                <mxCell id="W_Fl8U6niNGUEY-Sqnad-963" value="res_d" style="rounded=0;whiteSpace=wrap;html=1;fillColor=#d5e8d4;strokeColor=#82b366;" parent="W_Fl8U6niNGUEY-Sqnad-846" vertex="1">
                    <mxGeometry x="551.13" y="450" width="50" height="30" as="geometry"/>
                </mxCell>
                <mxCell id="W_Fl8U6niNGUEY-Sqnad-964" value="" style="endArrow=classic;html=1;rounded=0;entryX=0.5;entryY=0;entryDx=0;entryDy=0;exitX=0;exitY=0.75;exitDx=0;exitDy=0;" parent="W_Fl8U6niNGUEY-Sqnad-846" source="W_Fl8U6niNGUEY-Sqnad-963" target="W_Fl8U6niNGUEY-Sqnad-915" edge="1">
                    <mxGeometry width="50" height="50" relative="1" as="geometry">
                        <mxPoint x="427" y="379" as="sourcePoint"/>
                        <mxPoint x="548" y="408" as="targetPoint"/>
                    </mxGeometry>
                </mxCell>
                <mxCell id="W_Fl8U6niNGUEY-Sqnad-965" value="" style="endArrow=classic;html=1;rounded=0;exitX=0;exitY=0.5;exitDx=0;exitDy=0;entryX=1;entryY=0.25;entryDx=0;entryDy=0;" parent="W_Fl8U6niNGUEY-Sqnad-846" source="W_Fl8U6niNGUEY-Sqnad-960" target="W_Fl8U6niNGUEY-Sqnad-940" edge="1">
                    <mxGeometry width="50" height="50" relative="1" as="geometry">
                        <mxPoint x="382" y="379" as="sourcePoint"/>
                        <mxPoint x="431" y="408" as="targetPoint"/>
                    </mxGeometry>
                </mxCell>
                <mxCell id="W_Fl8U6niNGUEY-Sqnad-944" value="" style="endArrow=classic;html=1;rounded=0;exitX=0.5;exitY=0;exitDx=0;exitDy=0;" parent="1" source="W_Fl8U6niNGUEY-Sqnad-875" edge="1">
                    <mxGeometry width="50" height="50" relative="1" as="geometry">
                        <mxPoint x="497" y="1930" as="sourcePoint"/>
                        <mxPoint x="670" y="1840" as="targetPoint"/>
                    </mxGeometry>
                </mxCell>
                <mxCell id="W_Fl8U6niNGUEY-Sqnad-945" value="" style="endArrow=classic;html=1;rounded=0;exitX=0.5;exitY=0;exitDx=0;exitDy=0;" parent="1" source="W_Fl8U6niNGUEY-Sqnad-884" edge="1">
                    <mxGeometry width="50" height="50" relative="1" as="geometry">
                        <mxPoint x="849" y="2030" as="sourcePoint"/>
                        <mxPoint x="980" y="1830" as="targetPoint"/>
                    </mxGeometry>
                </mxCell>
                <mxCell id="W_Fl8U6niNGUEY-Sqnad-946" value="" style="group" parent="1" vertex="1" connectable="0">
                    <mxGeometry x="270.27" y="2342.25" width="90" height="90" as="geometry"/>
                </mxCell>
                <mxCell id="W_Fl8U6niNGUEY-Sqnad-947" value="demand_resint_1" style="rounded=1;whiteSpace=wrap;html=1;" parent="W_Fl8U6niNGUEY-Sqnad-946" vertex="1">
                    <mxGeometry x="-30.27" y="5.5" width="100.27" height="30" as="geometry"/>
                </mxCell>
                <mxCell id="W_Fl8U6niNGUEY-Sqnad-948" value="res_d" style="rounded=0;whiteSpace=wrap;html=1;fillColor=#d5e8d4;strokeColor=#82b366;" parent="W_Fl8U6niNGUEY-Sqnad-946" vertex="1">
                    <mxGeometry x="-10.269999999999982" y="-22.25" width="50" height="30" as="geometry"/>
                </mxCell>
                <mxCell id="W_Fl8U6niNGUEY-Sqnad-949" value="" style="endArrow=classic;html=1;rounded=0;entryX=0;entryY=0.75;entryDx=0;entryDy=0;" parent="1" source="W_Fl8U6niNGUEY-Sqnad-948" target="W_Fl8U6niNGUEY-Sqnad-901" edge="1">
                    <mxGeometry width="50" height="50" relative="1" as="geometry">
                        <mxPoint x="312.50000000000045" y="2310" as="sourcePoint"/>
                        <mxPoint x="1229.27" y="2277.25" as="targetPoint"/>
                    </mxGeometry>
                </mxCell>
                <mxCell id="W_Fl8U6niNGUEY-Sqnad-953" value="" style="endArrow=classic;html=1;rounded=0;exitX=1;exitY=0.5;exitDx=0;exitDy=0;" parent="1" source="W_Fl8U6niNGUEY-Sqnad-952" edge="1">
                    <mxGeometry width="50" height="50" relative="1" as="geometry">
                        <mxPoint x="646" y="2109" as="sourcePoint"/>
                        <mxPoint x="700.27" y="2240" as="targetPoint"/>
                    </mxGeometry>
                </mxCell>
                <mxCell id="W_Fl8U6niNGUEY-Sqnad-966" value="Cohérence" style="rounded=1;whiteSpace=wrap;html=1;" parent="1" vertex="1">
                    <mxGeometry x="576.54" y="2500" width="113.73" height="30" as="geometry"/>
                </mxCell>
                <mxCell id="W_Fl8U6niNGUEY-Sqnad-967" value="res_d" style="rounded=0;whiteSpace=wrap;html=1;fillColor=#d5e8d4;strokeColor=#82b366;" parent="1" vertex="1">
                    <mxGeometry x="600.27" y="2470" width="50" height="30" as="geometry"/>
                </mxCell>
                <mxCell id="W_Fl8U6niNGUEY-Sqnad-969" value="" style="endArrow=classic;html=1;rounded=0;exitX=0.5;exitY=1;exitDx=0;exitDy=0;" parent="1" source="W_Fl8U6niNGUEY-Sqnad-952" target="W_Fl8U6niNGUEY-Sqnad-967" edge="1">
                    <mxGeometry width="50" height="50" relative="1" as="geometry">
                        <mxPoint x="587.27" y="2205" as="sourcePoint"/>
                        <mxPoint x="710.27" y="2250" as="targetPoint"/>
                    </mxGeometry>
                </mxCell>
                <mxCell id="W_Fl8U6niNGUEY-Sqnad-970" value="" style="endArrow=classic;html=1;rounded=0;exitX=0.5;exitY=1;exitDx=0;exitDy=0;" parent="1" source="W_Fl8U6niNGUEY-Sqnad-956" edge="1">
                    <mxGeometry width="50" height="50" relative="1" as="geometry">
                        <mxPoint x="562.27" y="2220" as="sourcePoint"/>
                        <mxPoint x="630.27" y="2470" as="targetPoint"/>
                    </mxGeometry>
                </mxCell>
                <mxCell id="W_Fl8U6niNGUEY-Sqnad-971" value="Cohérence" style="rounded=1;whiteSpace=wrap;html=1;" parent="1" vertex="1">
                    <mxGeometry x="860.27" y="2500" width="113.73" height="30" as="geometry"/>
                </mxCell>
                <mxCell id="W_Fl8U6niNGUEY-Sqnad-972" value="res_d" style="rounded=0;whiteSpace=wrap;html=1;fillColor=#d5e8d4;strokeColor=#82b366;" parent="1" vertex="1">
                    <mxGeometry x="884" y="2470" width="50" height="30" as="geometry"/>
                </mxCell>
                <mxCell id="W_Fl8U6niNGUEY-Sqnad-973" value="" style="endArrow=classic;html=1;rounded=0;exitX=0.25;exitY=1;exitDx=0;exitDy=0;entryX=0.5;entryY=0;entryDx=0;entryDy=0;" parent="1" source="W_Fl8U6niNGUEY-Sqnad-960" target="W_Fl8U6niNGUEY-Sqnad-972" edge="1">
                    <mxGeometry width="50" height="50" relative="1" as="geometry">
                        <mxPoint x="562.27" y="2220" as="sourcePoint"/>
                        <mxPoint x="631.27" y="2480" as="targetPoint"/>
                    </mxGeometry>
                </mxCell>
                <mxCell id="W_Fl8U6niNGUEY-Sqnad-974" value="" style="endArrow=classic;html=1;rounded=0;exitX=0.5;exitY=1;exitDx=0;exitDy=0;entryX=0.75;entryY=0;entryDx=0;entryDy=0;" parent="1" source="W_Fl8U6niNGUEY-Sqnad-963" target="W_Fl8U6niNGUEY-Sqnad-972" edge="1">
                    <mxGeometry width="50" height="50" relative="1" as="geometry">
                        <mxPoint x="891.27" y="2220" as="sourcePoint"/>
                        <mxPoint x="919.27" y="2480" as="targetPoint"/>
                    </mxGeometry>
                </mxCell>
                <mxCell id="W_Fl8U6niNGUEY-Sqnad-977" value="Demand : Model" style="swimlane;fontStyle=0;childLayout=stackLayout;horizontal=1;startSize=30;horizontalStack=0;resizeParent=1;resizeParentMax=0;resizeLast=0;collapsible=1;marginBottom=0;whiteSpace=wrap;html=1;fillColor=#CCFFCC;" parent="1" vertex="1">
                    <mxGeometry x="-210" y="-290" width="320" height="120" as="geometry"/>
                </mxCell>
                <mxCell id="W_Fl8U6niNGUEY-Sqnad-978" value="d : Parameter" style="text;strokeColor=none;fillColor=none;align=left;verticalAlign=middle;spacingLeft=4;spacingRight=4;overflow=hidden;points=[[0,0.5],[1,0.5]];portConstraint=eastwest;rotatable=0;whiteSpace=wrap;html=1;" parent="W_Fl8U6niNGUEY-Sqnad-977" vertex="1">
                    <mxGeometry y="30" width="320" height="30" as="geometry"/>
                </mxCell>
                <mxCell id="W_Fl8U6niNGUEY-Sqnad-979" value="" style="endArrow=none;dashed=1;html=1;rounded=0;exitX=0;exitY=0.5;exitDx=0;exitDy=0;entryX=1;entryY=0.5;entryDx=0;entryDy=0;" parent="W_Fl8U6niNGUEY-Sqnad-977" edge="1">
                    <mxGeometry width="50" height="50" relative="1" as="geometry">
                        <mxPoint y="58" as="sourcePoint"/>
                        <mxPoint x="220" y="58" as="targetPoint"/>
                    </mxGeometry>
                </mxCell>
                <mxCell id="W_Fl8U6niNGUEY-Sqnad-980" value="flow_d : Flow" style="text;strokeColor=none;fillColor=none;align=left;verticalAlign=middle;spacingLeft=4;spacingRight=4;overflow=hidden;points=[[0,0.5],[1,0.5]];portConstraint=eastwest;rotatable=0;whiteSpace=wrap;html=1;" parent="W_Fl8U6niNGUEY-Sqnad-977" vertex="1">
                    <mxGeometry y="60" width="320" height="30" as="geometry"/>
                </mxCell>
                <mxCell id="W_Fl8U6niNGUEY-Sqnad-981" value="flow_d.F = -d" style="text;strokeColor=none;fillColor=none;align=left;verticalAlign=middle;spacingLeft=4;spacingRight=4;overflow=hidden;points=[[0,0.5],[1,0.5]];portConstraint=eastwest;rotatable=0;whiteSpace=wrap;html=1;" parent="W_Fl8U6niNGUEY-Sqnad-977" vertex="1">
                    <mxGeometry y="90" width="320" height="30" as="geometry"/>
                </mxCell>
                <mxCell id="W_Fl8U6niNGUEY-Sqnad-982" value="" style="endArrow=none;dashed=1;html=1;rounded=0;exitX=0;exitY=0.5;exitDx=0;exitDy=0;entryX=1;entryY=0.5;entryDx=0;entryDy=0;" parent="W_Fl8U6niNGUEY-Sqnad-977" edge="1">
                    <mxGeometry width="50" height="50" relative="1" as="geometry">
                        <mxPoint y="89" as="sourcePoint"/>
                        <mxPoint x="220" y="89" as="targetPoint"/>
                    </mxGeometry>
                </mxCell>
                <mxCell id="W_Fl8U6niNGUEY-Sqnad-983" value="&lt;div style=&quot;text-align: left;&quot;&gt;&lt;b&gt;Ce modèle est une alternative dans le cas où l'on souhaiterait que le modèle lien ne soit pas impacté par le nombre de réserves définies. En effet le nouveau port (capa) aurait toujours 2 Portfield, significatif de la réservation de capacité de la ligne dans chacun des sens. Le compromis est que la complexité augmente.&lt;/b&gt;&lt;/div&gt;&lt;div style=&quot;text-align: left;&quot;&gt;&lt;br&gt;&lt;/div&gt;&lt;font style=&quot;&quot;&gt;&lt;b style=&quot;&quot;&gt;&lt;font style=&quot;font-size: 12px;&quot;&gt;&lt;br&gt;&lt;/font&gt;&lt;br&gt;&lt;/b&gt;&lt;/font&gt;" style="text;html=1;strokeColor=none;fillColor=none;align=center;verticalAlign=middle;whiteSpace=wrap;rounded=0;" parent="1" vertex="1">
                    <mxGeometry x="590.27" y="2550" width="550" height="200" as="geometry"/>
                </mxCell>
                <mxCell id="W_Fl8U6niNGUEY-Sqnad-985" value="Objective fonction contribution" style="swimlane;fontStyle=0;childLayout=stackLayout;horizontal=1;startSize=30;horizontalStack=0;resizeParent=1;resizeParentMax=0;resizeLast=0;collapsible=1;marginBottom=0;whiteSpace=wrap;html=1;fillColor=#5964FF;" parent="1" vertex="1">
                    <mxGeometry x="210" y="-246.18" width="320" height="140" as="geometry"/>
                </mxCell>
                <mxCell id="W_Fl8U6niNGUEY-Sqnad-986" value="La contribution à la fonction objectif correspond à la sommes du volume de spillage/défaillance des modèles &quot;Node&quot; et des modèles &quot;Reserve district&quot; multiplié par les coûts associés" style="text;strokeColor=none;fillColor=none;align=left;verticalAlign=middle;spacingLeft=4;spacingRight=4;overflow=hidden;points=[[0,0.5],[1,0.5]];portConstraint=eastwest;rotatable=0;whiteSpace=wrap;html=1;" parent="W_Fl8U6niNGUEY-Sqnad-985" vertex="1">
                    <mxGeometry y="30" width="320" height="110" as="geometry"/>
                </mxCell>
                <mxCell id="20" value="" style="endArrow=classic;html=1;rounded=0;shape=flexArrow;" edge="1" parent="1">
                    <mxGeometry width="50" height="50" relative="1" as="geometry">
                        <mxPoint x="420" y="1010" as="sourcePoint"/>
                        <mxPoint x="420" y="820" as="targetPoint"/>
                    </mxGeometry>
                </mxCell>
                <mxCell id="22" value="Un besoin interne au district d1 est défini et peut être satisfait uniquement par les clusters au sein du district. Une partie de la participation aux réserves des clusters peut répondre au besoin échangeable du district d1, ce qui se traduit par un transit fictif via conv_res_int_ext_1." style="text;strokeColor=none;fillColor=none;align=left;verticalAlign=middle;spacingLeft=4;spacingRight=4;overflow=hidden;points=[[0,0.5],[1,0.5]];portConstraint=eastwest;rotatable=0;whiteSpace=wrap;html=1;" vertex="1" parent="1">
                    <mxGeometry x="290" y="1010" width="234" height="110" as="geometry"/>
                </mxCell>
                <mxCell id="23" value="" style="endArrow=classic;html=1;rounded=0;shape=flexArrow;" edge="1" parent="1">
                    <mxGeometry width="50" height="50" relative="1" as="geometry">
                        <mxPoint x="730.27" y="1010" as="sourcePoint"/>
                        <mxPoint x="730.27" y="820" as="targetPoint"/>
                    </mxGeometry>
                </mxCell>
                <mxCell id="24" value="Un besoin échangeable du district d1 est défini et peut être satisfait par les clusters au sein du district ainsi que par des clusters d'autres districts dans la mesure où de la capacité est réservée sur les interconnections.&lt;br&gt;L'export de réserve à la hausse et l'import de réserve à la baisse diminue la capacité de la ligne dans le sens From-&amp;gt;To. Inversement, l'export de réserve à la baisse et l'import de réserve à la hausse diminue la capacité de la ligne dans le sens To-&amp;gt;From" style="text;strokeColor=none;fillColor=none;align=left;verticalAlign=middle;spacingLeft=4;spacingRight=4;overflow=hidden;points=[[0,0.5],[1,0.5]];portConstraint=eastwest;rotatable=0;whiteSpace=wrap;html=1;" vertex="1" parent="1">
                    <mxGeometry x="600.27" y="1010" width="234" height="200" as="geometry"/>
                </mxCell>
                <mxCell id="25" value="" style="endArrow=classic;html=1;rounded=0;shape=flexArrow;" edge="1" parent="1">
                    <mxGeometry width="50" height="50" relative="1" as="geometry">
                        <mxPoint x="1290" y="1010.0000000000005" as="sourcePoint"/>
                        <mxPoint x="1290" y="820.0000000000005" as="targetPoint"/>
                    </mxGeometry>
                </mxCell>
                <mxCell id="26" value="Un besoin interne au district d2 est défini et peut être satisfait uniquement par les clusters au sein du district. Une partie de la participation aux réserves des clusters peut répondre au besoin échangeable du district d2, ce qui se traduit par un transit fictif via conv_res_int_ext_2." style="text;strokeColor=none;fillColor=none;align=left;verticalAlign=middle;spacingLeft=4;spacingRight=4;overflow=hidden;points=[[0,0.5],[1,0.5]];portConstraint=eastwest;rotatable=0;whiteSpace=wrap;html=1;" vertex="1" parent="1">
                    <mxGeometry x="1160" y="1010" width="234" height="110" as="geometry"/>
                </mxCell>
                <mxCell id="27" value="" style="endArrow=classic;html=1;rounded=0;shape=flexArrow;" edge="1" parent="1">
                    <mxGeometry width="50" height="50" relative="1" as="geometry">
                        <mxPoint x="980.2699999999995" y="1010.0000000000005" as="sourcePoint"/>
                        <mxPoint x="980.2699999999995" y="820.0000000000005" as="targetPoint"/>
                    </mxGeometry>
                </mxCell>
                <mxCell id="28" value="Un besoin échangeable du district d2 est défini et peut être satisfait par les clusters au sein du district ainsi que par des clusters d'autres districts dans la mesure où de la capacité est réservée sur les interconnections.&lt;br&gt;L'export de réserve à la hausse et l'import de réserve à la baisse diminue la capacité de la ligne dans le sens From-&amp;gt;To. Inversement, l'export de réserve à la baisse et l'import de réserve à la hausse diminue la capacité de la ligne dans le sens To-&amp;gt;From" style="text;strokeColor=none;fillColor=none;align=left;verticalAlign=middle;spacingLeft=4;spacingRight=4;overflow=hidden;points=[[0,0.5],[1,0.5]];portConstraint=eastwest;rotatable=0;whiteSpace=wrap;html=1;" vertex="1" parent="1">
                    <mxGeometry x="850.27" y="1010" width="234" height="200" as="geometry"/>
                </mxCell>
            </root>
        </mxGraphModel>
    </diagram>
</mxfile>